<mxfile host="app.diagrams.net" modified="2023-03-29T07:41:40.121Z" agent="5.0 (Macintosh; Intel Mac OS X 10_15_7) AppleWebKit/537.36 (KHTML, like Gecko) Chrome/111.0.0.0 Safari/537.36" etag="Hk02k2DS-yD9TTjL4Gjo" version="21.0.10" type="github">
  <diagram name="PÃ gina-1" id="_ztOgPcBdJATkkKiHUxJ">
    <mxGraphModel dx="2653" dy="1440" grid="0" gridSize="10" guides="1" tooltips="1" connect="1" arrows="1" fold="1" page="0" pageScale="1" pageWidth="827" pageHeight="1169" math="0" shadow="0">
      <root>
        <mxCell id="0" />
        <mxCell id="1" parent="0" />
        <UserObject label="%FILE%&lt;br&gt;%FORMAT%" FILE="Step_00_SetBridge" FORMAT="STEP" INPUT="NA" OUTPUT="NA" placeholders="1" id="6DW6GiTfMn5qFB3sLEYP-994">
          <mxCell style="fillColor=#F8CECC;strokeColor=#B85450;rounded=1;html=1;" vertex="1" parent="1">
            <mxGeometry x="265" y="447.7725703716278" width="127" height="46" as="geometry" />
          </mxCell>
        </UserObject>
        <UserObject label="%FILE%&lt;br&gt;%FORMAT%" FILE="Step_00_SetDataBase" FORMAT="STEP" INPUT="NA" OUTPUT="NA" placeholders="1" id="6DW6GiTfMn5qFB3sLEYP-995">
          <mxCell style="fillColor=#F8CECC;strokeColor=#B85450;rounded=1;html=1;" vertex="1" parent="1">
            <mxGeometry x="256" y="1048.090909090909" width="145" height="46" as="geometry" />
          </mxCell>
        </UserObject>
        <UserObject label="%FILE%&lt;br&gt;%FORMAT%" FILE="Step_00_SetCodeSheets" FORMAT="STEP" INPUT="NA" OUTPUT="NA" placeholders="1" id="6DW6GiTfMn5qFB3sLEYP-996">
          <mxCell style="fillColor=#F8CECC;strokeColor=#B85450;rounded=1;html=1;" vertex="1" parent="1">
            <mxGeometry x="676.5" y="1294.5263157894738" width="158" height="46" as="geometry" />
          </mxCell>
        </UserObject>
        <UserObject label="%FILE%&lt;br&gt;%FORMAT%" FILE="Step_CreatePersonsSpells" FORMAT="STEP" INPUT="NA" OUTPUT="NA" placeholders="1" id="6DW6GiTfMn5qFB3sLEYP-997">
          <mxCell style="fillColor=#F8CECC;strokeColor=#B85450;rounded=1;html=1;" vertex="1" parent="1">
            <mxGeometry x="672" y="680.3333333333333" width="167" height="46" as="geometry" />
          </mxCell>
        </UserObject>
        <UserObject label="%FILE%&lt;br&gt;%FORMAT%" FILE="Step_Create_VP_COVID_EXP" FORMAT="STEP" INPUT="NA" OUTPUT="NA" placeholders="1" id="6DW6GiTfMn5qFB3sLEYP-998">
          <mxCell style="fillColor=#F8CECC;strokeColor=#B85450;rounded=1;html=1;" vertex="1" parent="1">
            <mxGeometry x="1695" y="1026" width="188" height="46" as="geometry" />
          </mxCell>
        </UserObject>
        <UserObject label="%FILE%&lt;br&gt;%FORMAT%" FILE="Step_CreateConceptsDataBase" FORMAT="STEP" INPUT="NA" OUTPUT="NA" placeholders="1" id="6DW6GiTfMn5qFB3sLEYP-999">
          <mxCell style="fillColor=#F8CECC;strokeColor=#B85450;rounded=1;html=1;" vertex="1" parent="1">
            <mxGeometry x="1209" y="1056" width="194" height="46" as="geometry" />
          </mxCell>
        </UserObject>
        <UserObject label="%FILE%&lt;br&gt;%FORMAT%" FILE="Step_CreateStudyPopulation" FORMAT="STEP" INPUT="NA" OUTPUT="NA" placeholders="1" id="6DW6GiTfMn5qFB3sLEYP-1000">
          <mxCell style="fillColor=#F8CECC;strokeColor=#B85450;rounded=1;html=1;" vertex="1" parent="1">
            <mxGeometry x="2203" y="1086" width="178" height="46" as="geometry" />
          </mxCell>
        </UserObject>
        <UserObject label="%FILE%&lt;br&gt;%FORMAT%" FILE="Step_07_CreateSpellsMatching" FORMAT="STEP" INPUT="NA" OUTPUT="NA" placeholders="1" id="6DW6GiTfMn5qFB3sLEYP-1001">
          <mxCell style="fillColor=#F8CECC;strokeColor=#B85450;rounded=1;html=1;" vertex="1" parent="1">
            <mxGeometry x="2662" y="874.2" width="192" height="46" as="geometry" />
          </mxCell>
        </UserObject>
        <UserObject label="%FILE%&lt;br&gt;%FORMAT%" FILE="Step_08_PrepareExposedControlsSpellsCombined" FORMAT="STEP" INPUT="NA" OUTPUT="NA" placeholders="1" id="6DW6GiTfMn5qFB3sLEYP-1002">
          <mxCell style="fillColor=#F8CECC;strokeColor=#B85450;rounded=1;html=1;" vertex="1" parent="1">
            <mxGeometry x="3190" y="861.8461538461538" width="296" height="46" as="geometry" />
          </mxCell>
        </UserObject>
        <UserObject label="%FILE%&lt;br&gt;%FORMAT%" FILE="Step_09_MatchingProcedureV2" FORMAT="STEP" INPUT="NA" OUTPUT="NA" placeholders="1" id="6DW6GiTfMn5qFB3sLEYP-1003">
          <mxCell style="fillColor=#F8CECC;strokeColor=#B85450;rounded=1;html=1;" vertex="1" parent="1">
            <mxGeometry x="3776" y="876" width="193" height="46" as="geometry" />
          </mxCell>
        </UserObject>
        <UserObject label="%FILE%&lt;br&gt;%FORMAT%" FILE="Step_10_CombineExposedControl" FORMAT="STEP" INPUT="NA" OUTPUT="NA" placeholders="1" id="6DW6GiTfMn5qFB3sLEYP-1004">
          <mxCell style="fillColor=#F8CECC;strokeColor=#B85450;rounded=1;html=1;" vertex="1" parent="1">
            <mxGeometry x="4233" y="920" width="208" height="46" as="geometry" />
          </mxCell>
        </UserObject>
        <UserObject label="%FILE%&lt;br&gt;%FORMAT%" FILE="Step_11_ResultsPrematching" FORMAT="STEP" INPUT="NA" OUTPUT="NA" placeholders="1" id="6DW6GiTfMn5qFB3sLEYP-1005">
          <mxCell style="fillColor=#F8CECC;strokeColor=#B85450;rounded=1;html=1;" vertex="1" parent="1">
            <mxGeometry x="4767" y="836.6" width="181" height="46" as="geometry" />
          </mxCell>
        </UserObject>
        <UserObject label="%FILE%&lt;br&gt;%FORMAT%" FILE="Step_11c_PrepareDatabase_2" FORMAT="STEP" INPUT="NA" OUTPUT="NA" placeholders="1" id="6DW6GiTfMn5qFB3sLEYP-1006">
          <mxCell style="fillColor=#F8CECC;strokeColor=#B85450;rounded=1;html=1;" vertex="1" parent="1">
            <mxGeometry x="4764" y="1079" width="187" height="46" as="geometry" />
          </mxCell>
        </UserObject>
        <UserObject label="%FILE%&lt;br&gt;%FORMAT%" FILE="Step_GetDatesAESI" FORMAT="STEP" INPUT="NA" OUTPUT="NA" placeholders="1" id="6DW6GiTfMn5qFB3sLEYP-1007">
          <mxCell style="fillColor=#F8CECC;strokeColor=#B85450;rounded=1;html=1;" vertex="1" parent="1">
            <mxGeometry x="5241.5" y="827.7275264" width="132" height="46" as="geometry" />
          </mxCell>
        </UserObject>
        <UserObject label="%FILE%&lt;br&gt;%FORMAT%" FILE="Step_GetDatesCOV" FORMAT="STEP" INPUT="NA" OUTPUT="NA" placeholders="1" id="6DW6GiTfMn5qFB3sLEYP-1008">
          <mxCell style="fillColor=#F8CECC;strokeColor=#B85450;rounded=1;html=1;" vertex="1" parent="1">
            <mxGeometry x="5242" y="1250.8333333333335" width="131" height="46" as="geometry" />
          </mxCell>
        </UserObject>
        <UserObject label="%FILE%&lt;br&gt;%FORMAT%" FILE="Step_19_PreparingTableShellsData" FORMAT="STEP" INPUT="NA" OUTPUT="NA" placeholders="1" id="6DW6GiTfMn5qFB3sLEYP-1009">
          <mxCell style="fillColor=#F8CECC;strokeColor=#B85450;rounded=1;html=1;" vertex="1" parent="1">
            <mxGeometry x="5201" y="1086" width="213" height="46" as="geometry" />
          </mxCell>
        </UserObject>
        <UserObject label="%FILE%&lt;br&gt;%FORMAT%" FILE="AESI files" FORMAT="multiple-rds" INPUT="NA" OUTPUT="Step_GetDatesAESI" placeholders="1" id="6DW6GiTfMn5qFB3sLEYP-1010">
          <mxCell style="shape=mxgraph.flowchart.multi-document;fillColor=#FFE6CC;strokeColor=#D79B00;rounded=0;html=1;" vertex="1" parent="1">
            <mxGeometry x="5518.5" y="934.891072" width="85" height="46" as="geometry" />
          </mxCell>
        </UserObject>
        <UserObject label="%FILE%&lt;br&gt;%FORMAT%" FILE="AZ_additional_concepts" FORMAT="csv" INPUT="Step_00_SetCodeSheets" OUTPUT="NA" placeholders="1" id="6DW6GiTfMn5qFB3sLEYP-1011">
          <mxCell style="shape=mxgraph.flowchart.document;fillColor=#FFFFFF;strokeColor=#000000;rounded=0;html=1;" vertex="1" parent="1">
            <mxGeometry x="461" y="1646" width="151" height="46" as="geometry" />
          </mxCell>
        </UserObject>
        <UserObject label="%FILE%&lt;br&gt;%FORMAT%" FILE="AZ_algorithms" FORMAT="csv" INPUT="Step_00_SetCodeSheets" OUTPUT="NA" placeholders="1" id="6DW6GiTfMn5qFB3sLEYP-1012">
          <mxCell style="shape=mxgraph.flowchart.document;fillColor=#FFFFFF;strokeColor=#000000;rounded=0;html=1;" vertex="1" parent="1">
            <mxGeometry x="486.5" y="798" width="100" height="46" as="geometry" />
          </mxCell>
        </UserObject>
        <UserObject label="%FILE%&lt;br&gt;%FORMAT%" FILE="AZ_dictionary" FORMAT="csv" INPUT="Step_00_SetCodeSheets" OUTPUT="NA" placeholders="1" id="6DW6GiTfMn5qFB3sLEYP-1013">
          <mxCell style="shape=mxgraph.flowchart.document;fillColor=#FFFFFF;strokeColor=#000000;rounded=0;html=1;" vertex="1" parent="1">
            <mxGeometry x="488.5" y="904" width="96" height="46" as="geometry" />
          </mxCell>
        </UserObject>
        <UserObject label="%FILE%&lt;br&gt;%FORMAT%" FILE="AZ_eventList" FORMAT="csv" INPUT="Step_00_SetCodeSheets" OUTPUT="NA" placeholders="1" id="6DW6GiTfMn5qFB3sLEYP-1014">
          <mxCell style="shape=mxgraph.flowchart.document;fillColor=#FFFFFF;strokeColor=#000000;rounded=0;html=1;" vertex="1" parent="1">
            <mxGeometry x="490" y="1010" width="93" height="46" as="geometry" />
          </mxCell>
        </UserObject>
        <UserObject label="%FILE%&lt;br&gt;%FORMAT%" FILE="AZ_eventList" FORMAT="rds" INPUT="NA" OUTPUT="Step_00_SetCodeSheets" placeholders="1" id="6DW6GiTfMn5qFB3sLEYP-1015">
          <mxCell style="shape=mxgraph.flowchart.document;fillColor=#FFE6CC;strokeColor=#D79B00;rounded=0;html=1;" vertex="1" parent="1">
            <mxGeometry x="977.5" y="1766" width="93" height="46" as="geometry" />
          </mxCell>
        </UserObject>
        <UserObject label="%FILE%&lt;br&gt;%FORMAT%" FILE="AZ_formulas" FORMAT="csv" INPUT="Step_00_SetCodeSheets" OUTPUT="NA" placeholders="1" id="6DW6GiTfMn5qFB3sLEYP-1016">
          <mxCell style="shape=mxgraph.flowchart.document;fillColor=#FFFFFF;strokeColor=#000000;rounded=0;html=1;" vertex="1" parent="1">
            <mxGeometry x="491" y="1116" width="91" height="46" as="geometry" />
          </mxCell>
        </UserObject>
        <UserObject label="%FILE%&lt;br&gt;%FORMAT%" FILE="AZ_scores" FORMAT="csv" INPUT="Step_00_SetCodeSheets" OUTPUT="NA" placeholders="1" id="6DW6GiTfMn5qFB3sLEYP-1017">
          <mxCell style="shape=mxgraph.flowchart.document;fillColor=#FFFFFF;strokeColor=#000000;rounded=0;html=1;" vertex="1" parent="1">
            <mxGeometry x="496.5" y="1222" width="80" height="46" as="geometry" />
          </mxCell>
        </UserObject>
        <UserObject label="%FILE%&lt;br&gt;%FORMAT%" FILE="AZ_study_variables" FORMAT="csv" INPUT="Step_00_SetBridge" OUTPUT="NA" placeholders="1" id="6DW6GiTfMn5qFB3sLEYP-1018">
          <mxCell style="shape=mxgraph.flowchart.document;fillColor=#FFFFFF;strokeColor=#000000;rounded=0;html=1;" vertex="1" parent="1">
            <mxGeometry x="44" y="447.7725703716278" width="128" height="46" as="geometry" />
          </mxCell>
        </UserObject>
        <UserObject label="%FILE%&lt;br&gt;%FORMAT%" FILE="AZ_study_variables" FORMAT="rds" INPUT="Step_GetDatesAESI,Step_GetDatesCOV" OUTPUT="Step_00_SetBridge" placeholders="1" id="6DW6GiTfMn5qFB3sLEYP-1019">
          <mxCell style="shape=mxgraph.flowchart.document;fillColor=#FFE6CC;strokeColor=#D79B00;rounded=0;html=1;" vertex="1" parent="1">
            <mxGeometry x="5012" y="791" width="128" height="46" as="geometry" />
          </mxCell>
        </UserObject>
        <UserObject label="%FILE%&lt;br&gt;%FORMAT%" FILE="AZ_vaccines_codelist" FORMAT="csv" INPUT="Step_00_SetCodeSheets" OUTPUT="NA" placeholders="1" id="6DW6GiTfMn5qFB3sLEYP-1020">
          <mxCell style="shape=mxgraph.flowchart.document;fillColor=#FFFFFF;strokeColor=#000000;rounded=0;html=1;" vertex="1" parent="1">
            <mxGeometry x="467" y="1328" width="139" height="46" as="geometry" />
          </mxCell>
        </UserObject>
        <UserObject label="%FILE%&lt;br&gt;%FORMAT%" FILE="Algorithms" FORMAT="rds" INPUT="Step_CreateConceptsDataBase" OUTPUT="Step_00_SetCodeSheets" placeholders="1" id="6DW6GiTfMn5qFB3sLEYP-1021">
          <mxCell style="shape=mxgraph.flowchart.document;fillColor=#FFE6CC;strokeColor=#D79B00;rounded=0;html=1;" vertex="1" parent="1">
            <mxGeometry x="984" y="1010" width="80" height="46" as="geometry" />
          </mxCell>
        </UserObject>
        <UserObject label="%FILE%&lt;br&gt;%FORMAT%" FILE="AllVaccinatedFirstDosePopulation" FORMAT="rds" INPUT="Step_11c_PrepareDatabase_2" OUTPUT="Step_CreateStudyPopulation" placeholders="1" id="6DW6GiTfMn5qFB3sLEYP-1022">
          <mxCell style="shape=mxgraph.flowchart.document;fillColor=#FFE6CC;strokeColor=#D79B00;rounded=0;html=1;" vertex="1" parent="1">
            <mxGeometry x="4501" y="973" width="203" height="46" as="geometry" />
          </mxCell>
        </UserObject>
        <UserObject label="%FILE%&lt;br&gt;%FORMAT%" FILE="AllVaccinatedSpells" FORMAT="rds" INPUT="Step_11_ResultsPrematching,Step_11c_PrepareDatabase_2" OUTPUT="Step_CreateStudyPopulation" placeholders="1" id="6DW6GiTfMn5qFB3sLEYP-1023">
          <mxCell style="shape=mxgraph.flowchart.document;fillColor=#FFE6CC;strokeColor=#D79B00;rounded=0;html=1;" vertex="1" parent="1">
            <mxGeometry x="4538.5" y="761" width="128" height="46" as="geometry" />
          </mxCell>
        </UserObject>
        <UserObject label="%FILE%&lt;br&gt;%FORMAT%" FILE="CDM_metadata" FORMAT="csv" INPUT="Step_00_SetDataBase" OUTPUT="NA" placeholders="1" id="6DW6GiTfMn5qFB3sLEYP-1024">
          <mxCell style="shape=mxgraph.flowchart.document;fillColor=#FFFFFF;strokeColor=#000000;rounded=0;html=1;" vertex="1" parent="1">
            <mxGeometry x="54.5" y="1563" width="107" height="46" as="geometry" />
          </mxCell>
        </UserObject>
        <UserObject label="%FILE%&lt;br&gt;%FORMAT%" FILE="CDM_origin" FORMAT="db" INPUT="Step_00_SetCodeSheets,Step_CreateConceptsDataBase,Step_CreatePersonsSpells" OUTPUT="Step_00_SetDataBase" placeholders="1" id="6DW6GiTfMn5qFB3sLEYP-1025">
          <mxCell style="shape=mxgraph.flowchart.database;fillColor=#DAE8FC;strokeColor=#1522D7;rounded=1;html=1;" vertex="1" parent="1">
            <mxGeometry x="493.5" y="692" width="86" height="46" as="geometry" />
          </mxCell>
        </UserObject>
        <UserObject label="%FILE%&lt;br&gt;%FORMAT%" FILE="Controls" FORMAT="db" INPUT="Step_09_MatchingProcedureV2" OUTPUT="Step_08_PrepareExposedControlsSpellsCombined" placeholders="1" id="6DW6GiTfMn5qFB3sLEYP-1026">
          <mxCell style="shape=mxgraph.flowchart.database;fillColor=#DAE8FC;strokeColor=#1522D7;rounded=1;html=1;" vertex="1" parent="1">
            <mxGeometry x="3597" y="1088" width="68" height="46" as="geometry" />
          </mxCell>
        </UserObject>
        <UserObject label="%FILE%&lt;br&gt;%FORMAT%" FILE="DAP_SPECIFIC_CODELIST_EVENTS" FORMAT="rds" INPUT="Step_CreateConceptsDataBase" OUTPUT="Step_00_SetCodeSheets" placeholders="1" id="6DW6GiTfMn5qFB3sLEYP-1027">
          <mxCell style="shape=mxgraph.flowchart.document;fillColor=#FFE6CC;strokeColor=#D79B00;rounded=0;html=1;" vertex="1" parent="1">
            <mxGeometry x="908.5" y="1116" width="231" height="46" as="geometry" />
          </mxCell>
        </UserObject>
        <UserObject label="%FILE%&lt;br&gt;%FORMAT%" FILE="DAP_SPECIFIC_CODELIST_MEDICINES" FORMAT="rds" INPUT="Step_CreateConceptsDataBase" OUTPUT="Step_00_SetCodeSheets" placeholders="1" id="6DW6GiTfMn5qFB3sLEYP-1028">
          <mxCell style="shape=mxgraph.flowchart.document;fillColor=#FFE6CC;strokeColor=#D79B00;rounded=0;html=1;" vertex="1" parent="1">
            <mxGeometry x="899" y="1222" width="250" height="46" as="geometry" />
          </mxCell>
        </UserObject>
        <UserObject label="%FILE%&lt;br&gt;%FORMAT%" FILE="DAP_SPECIFIC_CODELIST_VACCINES" FORMAT="rds" INPUT="Step_CreateConceptsDataBase" OUTPUT="Step_00_SetCodeSheets" placeholders="1" id="6DW6GiTfMn5qFB3sLEYP-1029">
          <mxCell style="shape=mxgraph.flowchart.document;fillColor=#FFE6CC;strokeColor=#D79B00;rounded=0;html=1;" vertex="1" parent="1">
            <mxGeometry x="902" y="1328" width="244" height="46" as="geometry" />
          </mxCell>
        </UserObject>
        <UserObject label="%FILE%&lt;br&gt;%FORMAT%" FILE="DAP_SPECIFIC_CONCEPTS" FORMAT="rds" INPUT="Step_07_CreateSpellsMatching,Step_CreateConceptsDataBase" OUTPUT="Step_00_SetCodeSheets" placeholders="1" id="6DW6GiTfMn5qFB3sLEYP-1030">
          <mxCell style="shape=mxgraph.flowchart.document;fillColor=#FFE6CC;strokeColor=#D79B00;rounded=0;html=1;" vertex="1" parent="1">
            <mxGeometry x="932.5" y="1434" width="183" height="46" as="geometry" />
          </mxCell>
        </UserObject>
        <UserObject label="%FILE%&lt;br&gt;%FORMAT%" FILE="DIC_L_GEOREGION_COV" FORMAT="rds" INPUT="Step_09_MatchingProcedureV2" OUTPUT="Step_08_PrepareExposedControlsSpellsCombined" placeholders="1" id="6DW6GiTfMn5qFB3sLEYP-1031">
          <mxCell style="shape=mxgraph.flowchart.document;fillColor=#FFE6CC;strokeColor=#D79B00;rounded=0;html=1;" vertex="1" parent="1">
            <mxGeometry x="3546" y="664" width="170" height="46" as="geometry" />
          </mxCell>
        </UserObject>
        <UserObject label="%FILE%&lt;br&gt;%FORMAT%" FILE="DIC_L_SOCIOECO_COV" FORMAT="rds" INPUT="Step_09_MatchingProcedureV2" OUTPUT="Step_08_PrepareExposedControlsSpellsCombined" placeholders="1" id="6DW6GiTfMn5qFB3sLEYP-1032">
          <mxCell style="shape=mxgraph.flowchart.document;fillColor=#FFE6CC;strokeColor=#D79B00;rounded=0;html=1;" vertex="1" parent="1">
            <mxGeometry x="3550.5" y="770" width="161" height="46" as="geometry" />
          </mxCell>
        </UserObject>
        <UserObject label="%FILE%&lt;br&gt;%FORMAT%" FILE="DIC_PER" FORMAT="rds" INPUT="Step_09_MatchingProcedureV2" OUTPUT="Step_08_PrepareExposedControlsSpellsCombined" placeholders="1" id="6DW6GiTfMn5qFB3sLEYP-1033">
          <mxCell style="shape=mxgraph.flowchart.document;fillColor=#FFE6CC;strokeColor=#D79B00;rounded=0;html=1;" vertex="1" parent="1">
            <mxGeometry x="3593.5" y="876" width="75" height="46" as="geometry" />
          </mxCell>
        </UserObject>
        <UserObject label="%FILE%&lt;br&gt;%FORMAT%" FILE="Dictionary" FORMAT="rds" INPUT="NA" OUTPUT="Step_00_SetCodeSheets" placeholders="1" id="6DW6GiTfMn5qFB3sLEYP-1034">
          <mxCell style="shape=mxgraph.flowchart.document;fillColor=#FFE6CC;strokeColor=#D79B00;rounded=0;html=1;" vertex="1" parent="1">
            <mxGeometry x="986" y="1540" width="76" height="46" as="geometry" />
          </mxCell>
        </UserObject>
        <UserObject label="%FILE%&lt;br&gt;%FORMAT%" FILE="EVENTS" FORMAT="CDM" INPUT="Step_00_SetDataBase" OUTPUT="NA" placeholders="1" id="6DW6GiTfMn5qFB3sLEYP-1035">
          <mxCell style="shape=mxgraph.flowchart.document;fillColor=#DAE8FC;strokeColor=#6C8EBF;rounded=1;html=1;" vertex="1" parent="1">
            <mxGeometry x="72.5" y="715" width="71" height="46" as="geometry" />
          </mxCell>
        </UserObject>
        <UserObject label="%FILE%&lt;br&gt;%FORMAT%" FILE="Exposed" FORMAT="db" INPUT="Step_09_MatchingProcedureV2" OUTPUT="Step_08_PrepareExposedControlsSpellsCombined" placeholders="1" id="6DW6GiTfMn5qFB3sLEYP-1036">
          <mxCell style="shape=mxgraph.flowchart.database;fillColor=#DAE8FC;strokeColor=#1522D7;rounded=1;html=1;" vertex="1" parent="1">
            <mxGeometry x="3596" y="982" width="70" height="46" as="geometry" />
          </mxCell>
        </UserObject>
        <UserObject label="%FILE%&lt;br&gt;%FORMAT%" FILE="FirstDosePopulation" FORMAT="rds" INPUT="Step_11c_PrepareDatabase_2" OUTPUT="Step_CreateStudyPopulation" placeholders="1" id="6DW6GiTfMn5qFB3sLEYP-1037">
          <mxCell style="shape=mxgraph.flowchart.document;fillColor=#FFE6CC;strokeColor=#D79B00;rounded=0;html=1;" vertex="1" parent="1">
            <mxGeometry x="4537" y="1079" width="131" height="46" as="geometry" />
          </mxCell>
        </UserObject>
        <UserObject label="%FILE%&lt;br&gt;%FORMAT%" FILE="IM_IMMUNCOMPR_COV_SPELLS" FORMAT="rds" INPUT="Step_08_PrepareExposedControlsSpellsCombined" OUTPUT="Step_07_CreateSpellsMatching" placeholders="1" id="6DW6GiTfMn5qFB3sLEYP-1038">
          <mxCell style="shape=mxgraph.flowchart.document;fillColor=#FFE6CC;strokeColor=#D79B00;rounded=0;html=1;" vertex="1" parent="1">
            <mxGeometry x="2915.5" y="1224" width="213" height="46" as="geometry" />
          </mxCell>
        </UserObject>
        <UserObject label="%FILE%&lt;br&gt;%FORMAT%" FILE="INPUTED" FORMAT="rds" INPUT="NA" OUTPUT="Step_CreatePersonsSpells" placeholders="1" id="6DW6GiTfMn5qFB3sLEYP-1039">
          <mxCell style="shape=mxgraph.flowchart.document;fillColor=#FFE6CC;strokeColor=#D79B00;rounded=0;html=1;" vertex="1" parent="1">
            <mxGeometry x="986" y="466" width="76" height="46" as="geometry" />
          </mxCell>
        </UserObject>
        <UserObject label="%FILE%&lt;br&gt;%FORMAT%" FILE="I_COVID19HISTAZ_COV_SPELLS" FORMAT="rds" INPUT="Step_08_PrepareExposedControlsSpellsCombined" OUTPUT="Step_07_CreateSpellsMatching" placeholders="1" id="6DW6GiTfMn5qFB3sLEYP-1040">
          <mxCell style="shape=mxgraph.flowchart.document;fillColor=#FFE6CC;strokeColor=#D79B00;rounded=0;html=1;" vertex="1" parent="1">
            <mxGeometry x="2916.5" y="588" width="211" height="46" as="geometry" />
          </mxCell>
        </UserObject>
        <UserObject label="%FILE%&lt;br&gt;%FORMAT%" FILE="LM_IMMUNINFLAM_COV_SPELLS" FORMAT="rds" INPUT="Step_08_PrepareExposedControlsSpellsCombined" OUTPUT="Step_07_CreateSpellsMatching" placeholders="1" id="6DW6GiTfMn5qFB3sLEYP-1041">
          <mxCell style="shape=mxgraph.flowchart.document;fillColor=#FFE6CC;strokeColor=#D79B00;rounded=0;html=1;" vertex="1" parent="1">
            <mxGeometry x="2914" y="694" width="216" height="46" as="geometry" />
          </mxCell>
        </UserObject>
        <UserObject label="%FILE%&lt;br&gt;%FORMAT%" FILE="L_FRAILCOMORB_COV_SPELLS" FORMAT="rds" INPUT="Step_08_PrepareExposedControlsSpellsCombined" OUTPUT="Step_07_CreateSpellsMatching" placeholders="1" id="6DW6GiTfMn5qFB3sLEYP-1042">
          <mxCell style="shape=mxgraph.flowchart.document;fillColor=#FFE6CC;strokeColor=#D79B00;rounded=0;html=1;" vertex="1" parent="1">
            <mxGeometry x="2917.5" y="800" width="209" height="46" as="geometry" />
          </mxCell>
        </UserObject>
        <UserObject label="%FILE%&lt;br&gt;%FORMAT%" FILE="L_GEOREGION_COV_SPELLS" FORMAT="rds" INPUT="Step_08_PrepareExposedControlsSpellsCombined" OUTPUT="Step_07_CreateSpellsMatching" placeholders="1" id="6DW6GiTfMn5qFB3sLEYP-1043">
          <mxCell style="shape=mxgraph.flowchart.document;fillColor=#FFE6CC;strokeColor=#D79B00;rounded=0;html=1;" vertex="1" parent="1">
            <mxGeometry x="2924.5" y="906" width="195" height="46" as="geometry" />
          </mxCell>
        </UserObject>
        <UserObject label="%FILE%&lt;br&gt;%FORMAT%" FILE="L_PREGNSTATUS_COV_SPELLS" FORMAT="rds" INPUT="Step_08_PrepareExposedControlsSpellsCombined" OUTPUT="Step_07_CreateSpellsMatching" placeholders="1" id="6DW6GiTfMn5qFB3sLEYP-1044">
          <mxCell style="shape=mxgraph.flowchart.document;fillColor=#FFE6CC;strokeColor=#D79B00;rounded=0;html=1;" vertex="1" parent="1">
            <mxGeometry x="2917.5" y="1012" width="209" height="46" as="geometry" />
          </mxCell>
        </UserObject>
        <UserObject label="%FILE%&lt;br&gt;%FORMAT%" FILE="MATCH_PAIRS_spells" FORMAT="rds" INPUT="Step_10_CombineExposedControl,Step_11_ResultsPrematching" OUTPUT="Step_09_MatchingProcedureV2" placeholders="1" id="6DW6GiTfMn5qFB3sLEYP-1045">
          <mxCell style="shape=mxgraph.flowchart.document;fillColor=#FFE6CC;strokeColor=#D79B00;rounded=0;html=1;" vertex="1" parent="1">
            <mxGeometry x="4029" y="876" width="144" height="46" as="geometry" />
          </mxCell>
        </UserObject>
        <UserObject label="%FILE%&lt;br&gt;%FORMAT%" FILE="MEDICAL_OBSERVATIONS" FORMAT="CDM" INPUT="Step_00_SetDataBase" OUTPUT="NA" placeholders="1" id="6DW6GiTfMn5qFB3sLEYP-1046">
          <mxCell style="shape=mxgraph.flowchart.document;fillColor=#DAE8FC;strokeColor=#6C8EBF;rounded=1;html=1;" vertex="1" parent="1">
            <mxGeometry x="20" y="821" width="176" height="46" as="geometry" />
          </mxCell>
        </UserObject>
        <UserObject label="%FILE%&lt;br&gt;%FORMAT%" FILE="MEDICINES" FORMAT="CDM" INPUT="Step_00_SetDataBase" OUTPUT="NA" placeholders="1" id="6DW6GiTfMn5qFB3sLEYP-1047">
          <mxCell style="shape=mxgraph.flowchart.document;fillColor=#DAE8FC;strokeColor=#6C8EBF;rounded=1;html=1;" vertex="1" parent="1">
            <mxGeometry x="63" y="927" width="90" height="46" as="geometry" />
          </mxCell>
        </UserObject>
        <UserObject label="%FILE%&lt;br&gt;%FORMAT%" FILE="M_StudyCohort_AESI" FORMAT="rds" INPUT="NA" OUTPUT="Step_GetDatesAESI" placeholders="1" id="6DW6GiTfMn5qFB3sLEYP-1048">
          <mxCell style="shape=mxgraph.flowchart.document;fillColor=#FFE6CC;strokeColor=#D79B00;rounded=0;html=1;" vertex="1" parent="1">
            <mxGeometry x="5491" y="827.7275264" width="140" height="46" as="geometry" />
          </mxCell>
        </UserObject>
        <UserObject label="%FILE%&lt;br&gt;%FORMAT%" FILE="M_Studycohort" FORMAT="rds" INPUT="Step_11_ResultsPrematching,Step_11c_PrepareDatabase_2" OUTPUT="Step_10_CombineExposedControl" placeholders="1" id="6DW6GiTfMn5qFB3sLEYP-1049">
          <mxCell style="shape=mxgraph.flowchart.document;fillColor=#FFE6CC;strokeColor=#D79B00;rounded=0;html=1;" vertex="1" parent="1">
            <mxGeometry x="4550.5" y="867" width="104" height="46" as="geometry" />
          </mxCell>
        </UserObject>
        <UserObject label="%FILE%&lt;br&gt;%FORMAT%" FILE="M_Studycohort2" FORMAT="rds" INPUT="NA" OUTPUT="Step_19_PreparingTableShellsData" placeholders="1" id="6DW6GiTfMn5qFB3sLEYP-1050">
          <mxCell style="shape=mxgraph.flowchart.document;fillColor=#FFE6CC;strokeColor=#D79B00;rounded=0;html=1;" vertex="1" parent="1">
            <mxGeometry x="5506" y="1139" width="110" height="46" as="geometry" />
          </mxCell>
        </UserObject>
        <UserObject label="%FILE%&lt;br&gt;%FORMAT%" FILE="M_Studycohort_Covariates_" FORMAT="rds" INPUT="NA" OUTPUT="Step_GetDatesCOV" placeholders="1" id="6DW6GiTfMn5qFB3sLEYP-1051">
          <mxCell style="shape=mxgraph.flowchart.document;fillColor=#FFE6CC;strokeColor=#D79B00;rounded=0;html=1;" vertex="1" parent="1">
            <mxGeometry x="5474" y="1250.8333333333335" width="174" height="46" as="geometry" />
          </mxCell>
        </UserObject>
        <UserObject label="%FILE%&lt;br&gt;%FORMAT%" FILE="MatchingPopulationSpells" FORMAT="rds" INPUT="Step_07_CreateSpellsMatching,Step_08_PrepareExposedControlsSpellsCombined,Step_10_CombineExposedControl,Step_11c_PrepareDatabase_2" OUTPUT="Step_CreateStudyPopulation" placeholders="1" id="6DW6GiTfMn5qFB3sLEYP-1052">
          <mxCell style="shape=mxgraph.flowchart.document;fillColor=#FFE6CC;strokeColor=#D79B00;rounded=0;html=1;" vertex="1" parent="1">
            <mxGeometry x="2441" y="1049" width="161" height="46" as="geometry" />
          </mxCell>
        </UserObject>
        <UserObject label="%FILE%&lt;br&gt;%FORMAT%" FILE="MatchingReport" FORMAT="csv" INPUT="NA" OUTPUT="Step_11_ResultsPrematching" placeholders="1" id="6DW6GiTfMn5qFB3sLEYP-1053">
          <mxCell style="shape=mxgraph.flowchart.document;fillColor=#FFFFFF;strokeColor=#000000;rounded=0;html=1;" vertex="1" parent="1">
            <mxGeometry x="5022" y="1003" width="108" height="46" as="geometry" />
          </mxCell>
        </UserObject>
        <UserObject label="%FILE%&lt;br&gt;%FORMAT%" FILE="NonAccepted_SPELLS" FORMAT="rds" INPUT="NA" OUTPUT="Step_CreateStudyPopulation" placeholders="1" id="6DW6GiTfMn5qFB3sLEYP-1054">
          <mxCell style="shape=mxgraph.flowchart.document;fillColor=#FFE6CC;strokeColor=#D79B00;rounded=0;html=1;" vertex="1" parent="1">
            <mxGeometry x="2448" y="883" width="147" height="46" as="geometry" />
          </mxCell>
        </UserObject>
        <UserObject label="%FILE%&lt;br&gt;%FORMAT%" FILE="OBSERVATION_PERIODS" FORMAT="CDM" INPUT="Step_00_SetDataBase" OUTPUT="NA" placeholders="1" id="6DW6GiTfMn5qFB3sLEYP-1055">
          <mxCell style="shape=mxgraph.flowchart.document;fillColor=#DAE8FC;strokeColor=#6C8EBF;rounded=1;html=1;" vertex="1" parent="1">
            <mxGeometry x="24" y="1033" width="168" height="46" as="geometry" />
          </mxCell>
        </UserObject>
        <UserObject label="%FILE%&lt;br&gt;%FORMAT%" FILE="PERSONS" FORMAT="CDM" INPUT="Step_00_SetDataBase" OUTPUT="NA" placeholders="1" id="6DW6GiTfMn5qFB3sLEYP-1056">
          <mxCell style="shape=mxgraph.flowchart.document;fillColor=#DAE8FC;strokeColor=#6C8EBF;rounded=1;html=1;" vertex="1" parent="1">
            <mxGeometry x="67" y="1139" width="82" height="46" as="geometry" />
          </mxCell>
        </UserObject>
        <UserObject label="%FILE%&lt;br&gt;%FORMAT%" FILE="PERSONS_01" FORMAT="rds" INPUT="NA" OUTPUT="Step_CreatePersonsSpells" placeholders="1" id="6DW6GiTfMn5qFB3sLEYP-1057">
          <mxCell style="shape=mxgraph.flowchart.document;fillColor=#FFE6CC;strokeColor=#D79B00;rounded=0;html=1;" vertex="1" parent="1">
            <mxGeometry x="973" y="572" width="102" height="46" as="geometry" />
          </mxCell>
        </UserObject>
        <UserObject label="%FILE%&lt;br&gt;%FORMAT%" FILE="PERSONS_CheckList_01" FORMAT="rds" INPUT="NA" OUTPUT="Step_CreatePersonsSpells" placeholders="1" id="6DW6GiTfMn5qFB3sLEYP-1058">
          <mxCell style="shape=mxgraph.flowchart.document;fillColor=#FFE6CC;strokeColor=#D79B00;rounded=0;html=1;" vertex="1" parent="1">
            <mxGeometry x="943.5" y="678" width="161" height="46" as="geometry" />
          </mxCell>
        </UserObject>
        <UserObject label="%FILE%&lt;br&gt;%FORMAT%" FILE="PROCEDURES" FORMAT="CDM" INPUT="Step_00_SetDataBase" OUTPUT="NA" placeholders="1" id="6DW6GiTfMn5qFB3sLEYP-1059">
          <mxCell style="shape=mxgraph.flowchart.document;fillColor=#DAE8FC;strokeColor=#6C8EBF;rounded=1;html=1;" vertex="1" parent="1">
            <mxGeometry x="54" y="1245" width="108" height="46" as="geometry" />
          </mxCell>
        </UserObject>
        <UserObject label="%FILE%&lt;br&gt;%FORMAT%" FILE="PopulationsTable" FORMAT="rds" INPUT="Step_11c_PrepareDatabase_2" OUTPUT="Step_CreateStudyPopulation" placeholders="1" id="6DW6GiTfMn5qFB3sLEYP-1060">
          <mxCell style="shape=mxgraph.flowchart.document;fillColor=#FFE6CC;strokeColor=#D79B00;rounded=0;html=1;" vertex="1" parent="1">
            <mxGeometry x="4545.5" y="1245" width="114" height="46" as="geometry" />
          </mxCell>
        </UserObject>
        <UserObject label="%FILE%&lt;br&gt;%FORMAT%" FILE="ResultsPrematching" FORMAT="csv" INPUT="NA" OUTPUT="Step_11_ResultsPrematching" placeholders="1" id="6DW6GiTfMn5qFB3sLEYP-1061">
          <mxCell style="shape=mxgraph.flowchart.document;fillColor=#FFFFFF;strokeColor=#000000;rounded=0;html=1;" vertex="1" parent="1">
            <mxGeometry x="5011" y="897" width="130" height="46" as="geometry" />
          </mxCell>
        </UserObject>
        <UserObject label="%FILE%&lt;br&gt;%FORMAT%" FILE="SPELLS_01" FORMAT="rds" INPUT="Step_Create_VP_COVID_EXP" OUTPUT="Step_CreatePersonsSpells" placeholders="1" id="6DW6GiTfMn5qFB3sLEYP-1062">
          <mxCell style="shape=mxgraph.flowchart.document;fillColor=#FFE6CC;strokeColor=#D79B00;rounded=0;html=1;" vertex="1" parent="1">
            <mxGeometry x="1505" y="920" width="88" height="46" as="geometry" />
          </mxCell>
        </UserObject>
        <UserObject label="%FILE%&lt;br&gt;%FORMAT%" FILE="SPELLS_04" FORMAT="rds" INPUT="Step_CreateStudyPopulation" OUTPUT="Step_Create_VP_COVID_EXP" placeholders="1" id="6DW6GiTfMn5qFB3sLEYP-1063">
          <mxCell style="shape=mxgraph.flowchart.document;fillColor=#FFE6CC;strokeColor=#D79B00;rounded=0;html=1;" vertex="1" parent="1">
            <mxGeometry x="1999" y="1079" width="88" height="46" as="geometry" />
          </mxCell>
        </UserObject>
        <UserObject label="%FILE%&lt;br&gt;%FORMAT%" FILE="SPELLS_CheckList2" FORMAT="rds" INPUT="Step_11c_PrepareDatabase_2" OUTPUT="Step_CreateStudyPopulation" placeholders="1" id="6DW6GiTfMn5qFB3sLEYP-1064">
          <mxCell style="shape=mxgraph.flowchart.document;fillColor=#FFE6CC;strokeColor=#D79B00;rounded=0;html=1;" vertex="1" parent="1">
            <mxGeometry x="4535.5" y="1351" width="134" height="46" as="geometry" />
          </mxCell>
        </UserObject>
        <UserObject label="%FILE%&lt;br&gt;%FORMAT%" FILE="SPELLS_CheckList_01" FORMAT="rds" INPUT="NA" OUTPUT="Step_CreatePersonsSpells" placeholders="1" id="6DW6GiTfMn5qFB3sLEYP-1065">
          <mxCell style="shape=mxgraph.flowchart.document;fillColor=#FFE6CC;strokeColor=#D79B00;rounded=0;html=1;" vertex="1" parent="1">
            <mxGeometry x="950" y="844" width="148" height="46" as="geometry" />
          </mxCell>
        </UserObject>
        <UserObject label="%FILE%&lt;br&gt;%FORMAT%" FILE="SURVEY_OBSERVATIONS" FORMAT="CDM" INPUT="Step_00_SetDataBase" OUTPUT="NA" placeholders="1" id="6DW6GiTfMn5qFB3sLEYP-1066">
          <mxCell style="shape=mxgraph.flowchart.document;fillColor=#DAE8FC;strokeColor=#6C8EBF;rounded=1;html=1;" vertex="1" parent="1">
            <mxGeometry x="22" y="1351" width="172" height="46" as="geometry" />
          </mxCell>
        </UserObject>
        <UserObject label="%FILE%&lt;br&gt;%FORMAT%" FILE="VACCINES" FORMAT="CDM" INPUT="Step_00_SetDataBase" OUTPUT="NA" placeholders="1" id="6DW6GiTfMn5qFB3sLEYP-1067">
          <mxCell style="shape=mxgraph.flowchart.document;fillColor=#DAE8FC;strokeColor=#6C8EBF;rounded=1;html=1;" vertex="1" parent="1">
            <mxGeometry x="66.5" y="1457" width="83" height="46" as="geometry" />
          </mxCell>
        </UserObject>
        <UserObject label="%FILE%&lt;br&gt;%FORMAT%" FILE="VP_COVID_EXP_CleanVaccines" FORMAT="rds" INPUT="NA" OUTPUT="Step_Create_VP_COVID_EXP" placeholders="1" id="6DW6GiTfMn5qFB3sLEYP-1068">
          <mxCell style="shape=mxgraph.flowchart.document;fillColor=#FFE6CC;strokeColor=#D79B00;rounded=0;html=1;" vertex="1" parent="1">
            <mxGeometry x="1943" y="973" width="200" height="46" as="geometry" />
          </mxCell>
        </UserObject>
        <UserObject label="%FILE%&lt;br&gt;%FORMAT%" FILE="VP_RECENTVACC_COV_SPELLS" FORMAT="rds" INPUT="Step_08_PrepareExposedControlsSpellsCombined" OUTPUT="Step_07_CreateSpellsMatching" placeholders="1" id="6DW6GiTfMn5qFB3sLEYP-1069">
          <mxCell style="shape=mxgraph.flowchart.document;fillColor=#FFE6CC;strokeColor=#D79B00;rounded=0;html=1;" vertex="1" parent="1">
            <mxGeometry x="2916" y="1118" width="212" height="46" as="geometry" />
          </mxCell>
        </UserObject>
        <UserObject label="%FILE%&lt;br&gt;%FORMAT%" FILE="_drug_proxies_codelist" FORMAT="csv" INPUT="Step_00_SetCodeSheets" OUTPUT="NA" placeholders="1" id="6DW6GiTfMn5qFB3sLEYP-1070">
          <mxCell style="shape=mxgraph.flowchart.document;fillColor=#FFFFFF;strokeColor=#000000;rounded=0;html=1;" vertex="1" parent="1">
            <mxGeometry x="463.5" y="1434" width="146" height="46" as="geometry" />
          </mxCell>
        </UserObject>
        <UserObject label="%FILE%&lt;br&gt;%FORMAT%" FILE="_full_codelist" FORMAT="csv" INPUT="Step_00_SetCodeSheets" OUTPUT="NA" placeholders="1" id="6DW6GiTfMn5qFB3sLEYP-1071">
          <mxCell style="shape=mxgraph.flowchart.document;fillColor=#FFFFFF;strokeColor=#000000;rounded=0;html=1;" vertex="1" parent="1">
            <mxGeometry x="490.5" y="1540" width="92" height="46" as="geometry" />
          </mxCell>
        </UserObject>
        <UserObject label="%FILE%&lt;br&gt;%FORMAT%" FILE="concepts_pre" FORMAT="db" INPUT="Step_07_CreateSpellsMatching,Step_19_PreparingTableShellsData,Step_Create_VP_COVID_EXP,Step_GetDatesAESI,Step_GetDatesCOV" OUTPUT="Step_CreateConceptsDataBase" placeholders="1" id="6DW6GiTfMn5qFB3sLEYP-1072">
          <mxCell style="shape=mxgraph.flowchart.database;fillColor=#DAE8FC;strokeColor=#1522D7;rounded=1;html=1;" vertex="1" parent="1">
            <mxGeometry x="1501.5" y="1132" width="95" height="46" as="geometry" />
          </mxCell>
        </UserObject>
        <UserObject label="%FILE%&lt;br&gt;%FORMAT%" FILE="count_rows_OriginDB" FORMAT="rds" INPUT="NA" OUTPUT="Step_00_SetDataBase" placeholders="1" id="6DW6GiTfMn5qFB3sLEYP-1073">
          <mxCell style="shape=mxgraph.flowchart.document;fillColor=#FFE6CC;strokeColor=#D79B00;rounded=0;html=1;" vertex="1" parent="1">
            <mxGeometry x="466.5" y="586" width="140" height="46" as="geometry" />
          </mxCell>
        </UserObject>
        <UserObject label="%FILE%&lt;br&gt;%FORMAT%" FILE="count_rows_preMatchingDb" FORMAT="rds" INPUT="NA" OUTPUT="Step_CreateConceptsDataBase" placeholders="1" id="6DW6GiTfMn5qFB3sLEYP-1074">
          <mxCell style="shape=mxgraph.flowchart.document;fillColor=#FFE6CC;strokeColor=#D79B00;rounded=0;html=1;" vertex="1" parent="1">
            <mxGeometry x="1463" y="1026" width="172" height="46" as="geometry" />
          </mxCell>
        </UserObject>
        <UserObject label="%FILE%&lt;br&gt;%FORMAT%" FILE="formula_weights" FORMAT="rds" INPUT="Step_GetDatesCOV" OUTPUT="Step_00_SetCodeSheets" placeholders="1" id="6DW6GiTfMn5qFB3sLEYP-1075">
          <mxCell style="shape=mxgraph.flowchart.document;fillColor=#FFE6CC;strokeColor=#D79B00;rounded=0;html=1;" vertex="1" parent="1">
            <mxGeometry x="5021" y="1335" width="110" height="46" as="geometry" />
          </mxCell>
        </UserObject>
        <UserObject label="%FILE%&lt;br&gt;%FORMAT%" FILE="populations" FORMAT="db" INPUT="Step_19_PreparingTableShellsData,Step_GetDatesAESI,Step_GetDatesCOV" OUTPUT="Step_11c_PrepareDatabase_2" placeholders="1" id="6DW6GiTfMn5qFB3sLEYP-1076">
          <mxCell style="shape=mxgraph.flowchart.database;fillColor=#DAE8FC;strokeColor=#1522D7;rounded=1;html=1;" vertex="1" parent="1">
            <mxGeometry x="5034" y="1109" width="84" height="46" as="geometry" />
          </mxCell>
        </UserObject>
        <UserObject label="%FILE%&lt;br&gt;%FORMAT%" FILE="score_groups" FORMAT="rds" INPUT="Step_GetDatesCOV" OUTPUT="Step_00_SetCodeSheets" placeholders="1" id="6DW6GiTfMn5qFB3sLEYP-1077">
          <mxCell style="shape=mxgraph.flowchart.document;fillColor=#FFE6CC;strokeColor=#D79B00;rounded=0;html=1;" vertex="1" parent="1">
            <mxGeometry x="5028" y="1441" width="96" height="46" as="geometry" />
          </mxCell>
        </UserObject>
        <mxCell id="6DW6GiTfMn5qFB3sLEYP-1078" value="" style="curved=1;endArrow=blockThin;endFill=1;fontSize=11;" edge="1" parent="1" source="6DW6GiTfMn5qFB3sLEYP-1011" target="6DW6GiTfMn5qFB3sLEYP-996">
          <mxGeometry relative="1" as="geometry">
            <Array as="points">
              <mxPoint x="624" y="1669" />
              <mxPoint x="660" y="1338.2263157894738" />
            </Array>
          </mxGeometry>
        </mxCell>
        <mxCell id="6DW6GiTfMn5qFB3sLEYP-1079" value="" style="curved=1;endArrow=blockThin;endFill=1;fontSize=11;" edge="1" parent="1" source="6DW6GiTfMn5qFB3sLEYP-1012" target="6DW6GiTfMn5qFB3sLEYP-996">
          <mxGeometry relative="1" as="geometry">
            <Array as="points">
              <mxPoint x="624" y="821" />
              <mxPoint x="658" y="1301.4263157894736" />
            </Array>
          </mxGeometry>
        </mxCell>
        <mxCell id="6DW6GiTfMn5qFB3sLEYP-1080" value="" style="curved=1;endArrow=blockThin;endFill=1;fontSize=11;" edge="1" parent="1" source="6DW6GiTfMn5qFB3sLEYP-1013" target="6DW6GiTfMn5qFB3sLEYP-996">
          <mxGeometry relative="1" as="geometry">
            <Array as="points">
              <mxPoint x="624" y="927" />
              <mxPoint x="656" y="1306.0263157894738" />
            </Array>
          </mxGeometry>
        </mxCell>
        <mxCell id="6DW6GiTfMn5qFB3sLEYP-1081" value="" style="curved=1;endArrow=blockThin;endFill=1;fontSize=11;" edge="1" parent="1" source="6DW6GiTfMn5qFB3sLEYP-1014" target="6DW6GiTfMn5qFB3sLEYP-996">
          <mxGeometry relative="1" as="geometry">
            <Array as="points">
              <mxPoint x="624" y="1033" />
              <mxPoint x="654" y="1310.6263157894737" />
            </Array>
          </mxGeometry>
        </mxCell>
        <mxCell id="6DW6GiTfMn5qFB3sLEYP-1082" value="" style="curved=1;endArrow=blockThin;endFill=1;fontSize=11;" edge="1" parent="1" source="6DW6GiTfMn5qFB3sLEYP-1016" target="6DW6GiTfMn5qFB3sLEYP-996">
          <mxGeometry relative="1" as="geometry">
            <Array as="points">
              <mxPoint x="624" y="1139" />
              <mxPoint x="652" y="1315.2263157894736" />
            </Array>
          </mxGeometry>
        </mxCell>
        <mxCell id="6DW6GiTfMn5qFB3sLEYP-1083" value="" style="curved=1;endArrow=blockThin;endFill=1;fontSize=11;" edge="1" parent="1" source="6DW6GiTfMn5qFB3sLEYP-1017" target="6DW6GiTfMn5qFB3sLEYP-996">
          <mxGeometry relative="1" as="geometry">
            <Array as="points">
              <mxPoint x="624" y="1245" />
              <mxPoint x="652" y="1319.8263157894737" />
            </Array>
          </mxGeometry>
        </mxCell>
        <mxCell id="6DW6GiTfMn5qFB3sLEYP-1084" value="" style="curved=1;endArrow=blockThin;endFill=1;fontSize=11;" edge="1" parent="1" source="6DW6GiTfMn5qFB3sLEYP-1018" target="6DW6GiTfMn5qFB3sLEYP-994">
          <mxGeometry relative="1" as="geometry">
            <Array as="points">
              <mxPoint x="208" y="470.7725703716278" />
              <mxPoint x="244" y="470.7725703716278" />
            </Array>
          </mxGeometry>
        </mxCell>
        <mxCell id="6DW6GiTfMn5qFB3sLEYP-1085" value="" style="curved=1;endArrow=blockThin;endFill=1;fontSize=11;" edge="1" parent="1" source="6DW6GiTfMn5qFB3sLEYP-1019" target="6DW6GiTfMn5qFB3sLEYP-1007">
          <mxGeometry relative="1" as="geometry">
            <Array as="points">
              <mxPoint x="5153" y="805" />
              <mxPoint x="5187" y="850.7275264" />
            </Array>
          </mxGeometry>
        </mxCell>
        <mxCell id="6DW6GiTfMn5qFB3sLEYP-1086" value="" style="curved=1;endArrow=blockThin;endFill=1;fontSize=11;" edge="1" parent="1" source="6DW6GiTfMn5qFB3sLEYP-1019" target="6DW6GiTfMn5qFB3sLEYP-1008">
          <mxGeometry relative="1" as="geometry">
            <Array as="points">
              <mxPoint x="5153" y="823" />
              <mxPoint x="5189" y="1259.4333333333334" />
            </Array>
          </mxGeometry>
        </mxCell>
        <mxCell id="6DW6GiTfMn5qFB3sLEYP-1087" value="" style="curved=1;endArrow=blockThin;endFill=1;fontSize=11;" edge="1" parent="1" source="6DW6GiTfMn5qFB3sLEYP-1020" target="6DW6GiTfMn5qFB3sLEYP-996">
          <mxGeometry relative="1" as="geometry">
            <Array as="points">
              <mxPoint x="624" y="1351" />
              <mxPoint x="654" y="1324.4263157894738" />
            </Array>
          </mxGeometry>
        </mxCell>
        <mxCell id="6DW6GiTfMn5qFB3sLEYP-1088" value="" style="curved=1;endArrow=blockThin;endFill=1;fontSize=11;" edge="1" parent="1" source="6DW6GiTfMn5qFB3sLEYP-1021" target="6DW6GiTfMn5qFB3sLEYP-999">
          <mxGeometry relative="1" as="geometry">
            <Array as="points">
              <mxPoint x="1161" y="1033" />
              <mxPoint x="1195" y="1070" />
            </Array>
          </mxGeometry>
        </mxCell>
        <mxCell id="6DW6GiTfMn5qFB3sLEYP-1089" value="" style="curved=1;endArrow=blockThin;endFill=1;fontSize=11;" edge="1" parent="1" source="6DW6GiTfMn5qFB3sLEYP-1022" target="6DW6GiTfMn5qFB3sLEYP-1006">
          <mxGeometry relative="1" as="geometry">
            <Array as="points">
              <mxPoint x="4716" y="996" />
              <mxPoint x="4748" y="1095.4285714285716" />
            </Array>
          </mxGeometry>
        </mxCell>
        <mxCell id="6DW6GiTfMn5qFB3sLEYP-1090" value="" style="curved=1;endArrow=blockThin;endFill=1;fontSize=11;" edge="1" parent="1" source="6DW6GiTfMn5qFB3sLEYP-1023" target="6DW6GiTfMn5qFB3sLEYP-1005">
          <mxGeometry relative="1" as="geometry">
            <Array as="points">
              <mxPoint x="4716" y="775" />
              <mxPoint x="4750" y="859.6" />
            </Array>
          </mxGeometry>
        </mxCell>
        <mxCell id="6DW6GiTfMn5qFB3sLEYP-1091" value="" style="curved=1;endArrow=blockThin;endFill=1;fontSize=11;" edge="1" parent="1" source="6DW6GiTfMn5qFB3sLEYP-1023" target="6DW6GiTfMn5qFB3sLEYP-1006">
          <mxGeometry relative="1" as="geometry">
            <Array as="points">
              <mxPoint x="4716" y="793" />
              <mxPoint x="4752" y="1082.2857142857142" />
            </Array>
          </mxGeometry>
        </mxCell>
        <mxCell id="6DW6GiTfMn5qFB3sLEYP-1092" value="" style="curved=1;endArrow=blockThin;endFill=1;fontSize=11;" edge="1" parent="1" source="6DW6GiTfMn5qFB3sLEYP-1024" target="6DW6GiTfMn5qFB3sLEYP-995">
          <mxGeometry relative="1" as="geometry">
            <Array as="points">
              <mxPoint x="208" y="1586" />
              <mxPoint x="244" y="1091.5353535353534" />
            </Array>
          </mxGeometry>
        </mxCell>
        <mxCell id="6DW6GiTfMn5qFB3sLEYP-1093" value="" style="curved=1;endArrow=blockThin;endFill=1;fontSize=11;" edge="1" parent="1" source="6DW6GiTfMn5qFB3sLEYP-1025" target="6DW6GiTfMn5qFB3sLEYP-996">
          <mxGeometry relative="1" as="geometry">
            <Array as="points">
              <mxPoint x="624" y="727" />
              <mxPoint x="660" y="1296.8263157894735" />
            </Array>
          </mxGeometry>
        </mxCell>
        <mxCell id="6DW6GiTfMn5qFB3sLEYP-1094" value="" style="curved=1;endArrow=blockThin;endFill=1;fontSize=11;" edge="1" parent="1" source="6DW6GiTfMn5qFB3sLEYP-1025" target="6DW6GiTfMn5qFB3sLEYP-999">
          <mxGeometry relative="1" as="geometry">
            <Array as="points">
              <mxPoint x="626" y="715" />
              <mxPoint x="642" y="950" />
              <mxPoint x="869" y="950" />
              <mxPoint x="869" y="950" />
              <mxPoint x="1179" y="950" />
              <mxPoint x="1197" y="1064" />
            </Array>
          </mxGeometry>
        </mxCell>
        <mxCell id="6DW6GiTfMn5qFB3sLEYP-1095" value="" style="curved=1;endArrow=blockThin;endFill=1;fontSize=11;" edge="1" parent="1" source="6DW6GiTfMn5qFB3sLEYP-1025" target="6DW6GiTfMn5qFB3sLEYP-997">
          <mxGeometry relative="1" as="geometry">
            <Array as="points">
              <mxPoint x="624" y="703" />
              <mxPoint x="660" y="703.3333333333333" />
            </Array>
          </mxGeometry>
        </mxCell>
        <mxCell id="6DW6GiTfMn5qFB3sLEYP-1096" value="" style="curved=1;endArrow=blockThin;endFill=1;fontSize=11;" edge="1" parent="1" source="6DW6GiTfMn5qFB3sLEYP-1026" target="6DW6GiTfMn5qFB3sLEYP-1003">
          <mxGeometry relative="1" as="geometry">
            <Array as="points">
              <mxPoint x="3728" y="1111" />
              <mxPoint x="3764" y="913.4000000000002" />
            </Array>
          </mxGeometry>
        </mxCell>
        <mxCell id="6DW6GiTfMn5qFB3sLEYP-1097" value="" style="curved=1;endArrow=blockThin;endFill=1;fontSize=11;" edge="1" parent="1" source="6DW6GiTfMn5qFB3sLEYP-1027" target="6DW6GiTfMn5qFB3sLEYP-999">
          <mxGeometry relative="1" as="geometry">
            <Array as="points">
              <mxPoint x="1161" y="1139" />
              <mxPoint x="1193" y="1076" />
            </Array>
          </mxGeometry>
        </mxCell>
        <mxCell id="6DW6GiTfMn5qFB3sLEYP-1098" value="" style="curved=1;endArrow=blockThin;endFill=1;fontSize=11;" edge="1" parent="1" source="6DW6GiTfMn5qFB3sLEYP-1028" target="6DW6GiTfMn5qFB3sLEYP-999">
          <mxGeometry relative="1" as="geometry">
            <Array as="points">
              <mxPoint x="1161" y="1245" />
              <mxPoint x="1193" y="1082" />
            </Array>
          </mxGeometry>
        </mxCell>
        <mxCell id="6DW6GiTfMn5qFB3sLEYP-1099" value="" style="curved=1;endArrow=blockThin;endFill=1;fontSize=11;" edge="1" parent="1" source="6DW6GiTfMn5qFB3sLEYP-1029" target="6DW6GiTfMn5qFB3sLEYP-999">
          <mxGeometry relative="1" as="geometry">
            <Array as="points">
              <mxPoint x="1161" y="1351" />
              <mxPoint x="1195" y="1088" />
            </Array>
          </mxGeometry>
        </mxCell>
        <mxCell id="6DW6GiTfMn5qFB3sLEYP-1100" value="" style="curved=1;endArrow=blockThin;endFill=1;fontSize=11;" edge="1" parent="1" source="6DW6GiTfMn5qFB3sLEYP-1030" target="6DW6GiTfMn5qFB3sLEYP-1001">
          <mxGeometry relative="1" as="geometry">
            <Array as="points">
              <mxPoint x="1161" y="1466" />
              <mxPoint x="1179" y="1252" />
              <mxPoint x="1433" y="1252" />
              <mxPoint x="1433" y="1252" />
              <mxPoint x="1665" y="1252" />
              <mxPoint x="1665" y="1252" />
              <mxPoint x="1913" y="1252" />
              <mxPoint x="1913" y="1252" />
              <mxPoint x="2173" y="1252" />
              <mxPoint x="2173" y="823" />
              <mxPoint x="2411" y="823" />
              <mxPoint x="2411" y="823" />
              <mxPoint x="2632" y="823" />
              <mxPoint x="2648" y="897.2" />
            </Array>
          </mxGeometry>
        </mxCell>
        <mxCell id="6DW6GiTfMn5qFB3sLEYP-1101" value="" style="curved=1;endArrow=blockThin;endFill=1;fontSize=11;" edge="1" parent="1" source="6DW6GiTfMn5qFB3sLEYP-1030" target="6DW6GiTfMn5qFB3sLEYP-999">
          <mxGeometry relative="1" as="geometry">
            <Array as="points">
              <mxPoint x="1161" y="1448" />
              <mxPoint x="1197" y="1094" />
            </Array>
          </mxGeometry>
        </mxCell>
        <mxCell id="6DW6GiTfMn5qFB3sLEYP-1102" value="" style="curved=1;endArrow=blockThin;endFill=1;fontSize=11;" edge="1" parent="1" source="6DW6GiTfMn5qFB3sLEYP-1031" target="6DW6GiTfMn5qFB3sLEYP-1003">
          <mxGeometry relative="1" as="geometry">
            <Array as="points">
              <mxPoint x="3728" y="687" />
              <mxPoint x="3764" y="884.6" />
            </Array>
          </mxGeometry>
        </mxCell>
        <mxCell id="6DW6GiTfMn5qFB3sLEYP-1103" value="" style="curved=1;endArrow=blockThin;endFill=1;fontSize=11;" edge="1" parent="1" source="6DW6GiTfMn5qFB3sLEYP-1032" target="6DW6GiTfMn5qFB3sLEYP-1003">
          <mxGeometry relative="1" as="geometry">
            <Array as="points">
              <mxPoint x="3728" y="793" />
              <mxPoint x="3762" y="891.8000000000001" />
            </Array>
          </mxGeometry>
        </mxCell>
        <mxCell id="6DW6GiTfMn5qFB3sLEYP-1104" value="" style="curved=1;endArrow=blockThin;endFill=1;fontSize=11;" edge="1" parent="1" source="6DW6GiTfMn5qFB3sLEYP-1033" target="6DW6GiTfMn5qFB3sLEYP-1003">
          <mxGeometry relative="1" as="geometry">
            <Array as="points">
              <mxPoint x="3728" y="899" />
              <mxPoint x="3760" y="899.0000000000001" />
            </Array>
          </mxGeometry>
        </mxCell>
        <mxCell id="6DW6GiTfMn5qFB3sLEYP-1105" value="" style="curved=1;endArrow=blockThin;endFill=1;fontSize=11;" edge="1" parent="1" source="6DW6GiTfMn5qFB3sLEYP-1035" target="6DW6GiTfMn5qFB3sLEYP-995">
          <mxGeometry relative="1" as="geometry">
            <Array as="points">
              <mxPoint x="208" y="738" />
              <mxPoint x="244" y="1050.6464646464647" />
            </Array>
          </mxGeometry>
        </mxCell>
        <mxCell id="6DW6GiTfMn5qFB3sLEYP-1106" value="" style="curved=1;endArrow=blockThin;endFill=1;fontSize=11;" edge="1" parent="1" source="6DW6GiTfMn5qFB3sLEYP-1036" target="6DW6GiTfMn5qFB3sLEYP-1003">
          <mxGeometry relative="1" as="geometry">
            <Array as="points">
              <mxPoint x="3728" y="1005" />
              <mxPoint x="3762" y="906.2000000000002" />
            </Array>
          </mxGeometry>
        </mxCell>
        <mxCell id="6DW6GiTfMn5qFB3sLEYP-1107" value="" style="curved=1;endArrow=blockThin;endFill=1;fontSize=11;" edge="1" parent="1" source="6DW6GiTfMn5qFB3sLEYP-1037" target="6DW6GiTfMn5qFB3sLEYP-1006">
          <mxGeometry relative="1" as="geometry">
            <Array as="points">
              <mxPoint x="4716" y="1102" />
              <mxPoint x="4746" y="1102" />
            </Array>
          </mxGeometry>
        </mxCell>
        <mxCell id="6DW6GiTfMn5qFB3sLEYP-1108" value="" style="curved=1;endArrow=blockThin;endFill=1;fontSize=11;" edge="1" parent="1" source="6DW6GiTfMn5qFB3sLEYP-1038" target="6DW6GiTfMn5qFB3sLEYP-1002">
          <mxGeometry relative="1" as="geometry">
            <Array as="points">
              <mxPoint x="3142" y="1247" />
              <mxPoint x="3178" y="904.9711538461538" />
            </Array>
          </mxGeometry>
        </mxCell>
        <mxCell id="6DW6GiTfMn5qFB3sLEYP-1109" value="" style="curved=1;endArrow=blockThin;endFill=1;fontSize=11;" edge="1" parent="1" source="6DW6GiTfMn5qFB3sLEYP-1040" target="6DW6GiTfMn5qFB3sLEYP-1002">
          <mxGeometry relative="1" as="geometry">
            <Array as="points">
              <mxPoint x="3142" y="611" />
              <mxPoint x="3176" y="870.4711538461538" />
            </Array>
          </mxGeometry>
        </mxCell>
        <mxCell id="6DW6GiTfMn5qFB3sLEYP-1110" value="" style="curved=1;endArrow=blockThin;endFill=1;fontSize=11;" edge="1" parent="1" source="6DW6GiTfMn5qFB3sLEYP-1041" target="6DW6GiTfMn5qFB3sLEYP-1002">
          <mxGeometry relative="1" as="geometry">
            <Array as="points">
              <mxPoint x="3142" y="717" />
              <mxPoint x="3174" y="876.2211538461538" />
            </Array>
          </mxGeometry>
        </mxCell>
        <mxCell id="6DW6GiTfMn5qFB3sLEYP-1111" value="" style="curved=1;endArrow=blockThin;endFill=1;fontSize=11;" edge="1" parent="1" source="6DW6GiTfMn5qFB3sLEYP-1042" target="6DW6GiTfMn5qFB3sLEYP-1002">
          <mxGeometry relative="1" as="geometry">
            <Array as="points">
              <mxPoint x="3142" y="823" />
              <mxPoint x="3172" y="881.9711538461538" />
            </Array>
          </mxGeometry>
        </mxCell>
        <mxCell id="6DW6GiTfMn5qFB3sLEYP-1112" value="" style="curved=1;endArrow=blockThin;endFill=1;fontSize=11;" edge="1" parent="1" source="6DW6GiTfMn5qFB3sLEYP-1043" target="6DW6GiTfMn5qFB3sLEYP-1002">
          <mxGeometry relative="1" as="geometry">
            <Array as="points">
              <mxPoint x="3142" y="929" />
              <mxPoint x="3172" y="887.7211538461538" />
            </Array>
          </mxGeometry>
        </mxCell>
        <mxCell id="6DW6GiTfMn5qFB3sLEYP-1113" value="" style="curved=1;endArrow=blockThin;endFill=1;fontSize=11;" edge="1" parent="1" source="6DW6GiTfMn5qFB3sLEYP-1044" target="6DW6GiTfMn5qFB3sLEYP-1002">
          <mxGeometry relative="1" as="geometry">
            <Array as="points">
              <mxPoint x="3142" y="1035" />
              <mxPoint x="3174" y="893.4711538461538" />
            </Array>
          </mxGeometry>
        </mxCell>
        <mxCell id="6DW6GiTfMn5qFB3sLEYP-1114" value="" style="curved=1;endArrow=blockThin;endFill=1;fontSize=11;" edge="1" parent="1" source="6DW6GiTfMn5qFB3sLEYP-1045" target="6DW6GiTfMn5qFB3sLEYP-1004">
          <mxGeometry relative="1" as="geometry">
            <Array as="points">
              <mxPoint x="4185" y="908" />
              <mxPoint x="4221" y="934" />
            </Array>
          </mxGeometry>
        </mxCell>
        <mxCell id="6DW6GiTfMn5qFB3sLEYP-1115" value="" style="curved=1;endArrow=blockThin;endFill=1;fontSize=11;" edge="1" parent="1" source="6DW6GiTfMn5qFB3sLEYP-1045" target="6DW6GiTfMn5qFB3sLEYP-1005">
          <mxGeometry relative="1" as="geometry">
            <Array as="points">
              <mxPoint x="4185" y="890" />
              <mxPoint x="4203" y="701" />
              <mxPoint x="4471" y="701" />
              <mxPoint x="4471" y="701" />
              <mxPoint x="4734" y="701" />
              <mxPoint x="4752" y="847.6" />
            </Array>
          </mxGeometry>
        </mxCell>
        <mxCell id="6DW6GiTfMn5qFB3sLEYP-1116" value="" style="curved=1;endArrow=blockThin;endFill=1;fontSize=11;" edge="1" parent="1" source="6DW6GiTfMn5qFB3sLEYP-1046" target="6DW6GiTfMn5qFB3sLEYP-995">
          <mxGeometry relative="1" as="geometry">
            <Array as="points">
              <mxPoint x="208" y="844" />
              <mxPoint x="242" y="1055.7575757575758" />
            </Array>
          </mxGeometry>
        </mxCell>
        <mxCell id="6DW6GiTfMn5qFB3sLEYP-1117" value="" style="curved=1;endArrow=blockThin;endFill=1;fontSize=11;" edge="1" parent="1" source="6DW6GiTfMn5qFB3sLEYP-1047" target="6DW6GiTfMn5qFB3sLEYP-995">
          <mxGeometry relative="1" as="geometry">
            <Array as="points">
              <mxPoint x="208" y="950" />
              <mxPoint x="240" y="1060.8686868686868" />
            </Array>
          </mxGeometry>
        </mxCell>
        <mxCell id="6DW6GiTfMn5qFB3sLEYP-1118" value="" style="curved=1;endArrow=blockThin;endFill=1;fontSize=11;" edge="1" parent="1" source="6DW6GiTfMn5qFB3sLEYP-1049" target="6DW6GiTfMn5qFB3sLEYP-1005">
          <mxGeometry relative="1" as="geometry">
            <Array as="points">
              <mxPoint x="4716" y="881" />
              <mxPoint x="4752" y="871.6" />
            </Array>
          </mxGeometry>
        </mxCell>
        <mxCell id="6DW6GiTfMn5qFB3sLEYP-1119" value="" style="curved=1;endArrow=blockThin;endFill=1;fontSize=11;" edge="1" parent="1" source="6DW6GiTfMn5qFB3sLEYP-1049" target="6DW6GiTfMn5qFB3sLEYP-1006">
          <mxGeometry relative="1" as="geometry">
            <Array as="points">
              <mxPoint x="4716" y="899" />
              <mxPoint x="4750" y="1088.857142857143" />
            </Array>
          </mxGeometry>
        </mxCell>
        <mxCell id="6DW6GiTfMn5qFB3sLEYP-1120" value="" style="curved=1;endArrow=blockThin;endFill=1;fontSize=11;" edge="1" parent="1" source="6DW6GiTfMn5qFB3sLEYP-1052" target="6DW6GiTfMn5qFB3sLEYP-1001">
          <mxGeometry relative="1" as="geometry">
            <Array as="points">
              <mxPoint x="2616" y="1067.5" />
              <mxPoint x="2650" y="909.2" />
            </Array>
          </mxGeometry>
        </mxCell>
        <mxCell id="6DW6GiTfMn5qFB3sLEYP-1121" value="" style="curved=1;endArrow=blockThin;endFill=1;fontSize=11;" edge="1" parent="1" source="6DW6GiTfMn5qFB3sLEYP-1052" target="6DW6GiTfMn5qFB3sLEYP-1002">
          <mxGeometry relative="1" as="geometry">
            <Array as="points">
              <mxPoint x="2614" y="1058.5" />
              <mxPoint x="2632" y="528" />
              <mxPoint x="2884" y="528" />
              <mxPoint x="2884" y="528" />
              <mxPoint x="3160" y="528" />
              <mxPoint x="3178" y="864.7211538461538" />
            </Array>
          </mxGeometry>
        </mxCell>
        <mxCell id="6DW6GiTfMn5qFB3sLEYP-1122" value="" style="curved=1;endArrow=blockThin;endFill=1;fontSize=11;" edge="1" parent="1" source="6DW6GiTfMn5qFB3sLEYP-1052" target="6DW6GiTfMn5qFB3sLEYP-1004">
          <mxGeometry relative="1" as="geometry">
            <Array as="points">
              <mxPoint x="2616" y="1076.5" />
              <mxPoint x="2632" y="1012" />
              <mxPoint x="2884" y="1012" />
              <mxPoint x="2884" y="1330" />
              <mxPoint x="3160" y="1330" />
              <mxPoint x="3160" y="982" />
              <mxPoint x="3516" y="982" />
              <mxPoint x="3516" y="1194" />
              <mxPoint x="3746" y="1194" />
              <mxPoint x="3746" y="982" />
              <mxPoint x="3999" y="982" />
              <mxPoint x="3999" y="982" />
              <mxPoint x="4203" y="982" />
              <mxPoint x="4221" y="952" />
            </Array>
          </mxGeometry>
        </mxCell>
        <mxCell id="6DW6GiTfMn5qFB3sLEYP-1123" value="" style="curved=1;endArrow=blockThin;endFill=1;fontSize=11;" edge="1" parent="1" source="6DW6GiTfMn5qFB3sLEYP-1052" target="6DW6GiTfMn5qFB3sLEYP-1006">
          <mxGeometry relative="1" as="geometry">
            <Array as="points">
              <mxPoint x="2614" y="1085.5" />
              <mxPoint x="2632" y="1132" />
              <mxPoint x="2884" y="1132" />
              <mxPoint x="2884" y="1510" />
              <mxPoint x="3160" y="1510" />
              <mxPoint x="3160" y="1510" />
              <mxPoint x="3516" y="1510" />
              <mxPoint x="3516" y="1510" />
              <mxPoint x="3746" y="1510" />
              <mxPoint x="3746" y="1510" />
              <mxPoint x="3999" y="1510" />
              <mxPoint x="3999" y="1510" />
              <mxPoint x="4203" y="1510" />
              <mxPoint x="4203" y="1510" />
              <mxPoint x="4471" y="1510" />
              <mxPoint x="4471" y="1185" />
              <mxPoint x="4734" y="1185" />
              <mxPoint x="4748" y="1108.5714285714284" />
            </Array>
          </mxGeometry>
        </mxCell>
        <mxCell id="6DW6GiTfMn5qFB3sLEYP-1124" value="" style="curved=1;endArrow=blockThin;endFill=1;fontSize=11;" edge="1" parent="1" source="6DW6GiTfMn5qFB3sLEYP-1055" target="6DW6GiTfMn5qFB3sLEYP-995">
          <mxGeometry relative="1" as="geometry">
            <Array as="points">
              <mxPoint x="208" y="1056" />
              <mxPoint x="238" y="1065.979797979798" />
            </Array>
          </mxGeometry>
        </mxCell>
        <mxCell id="6DW6GiTfMn5qFB3sLEYP-1125" value="" style="curved=1;endArrow=blockThin;endFill=1;fontSize=11;" edge="1" parent="1" source="6DW6GiTfMn5qFB3sLEYP-1056" target="6DW6GiTfMn5qFB3sLEYP-995">
          <mxGeometry relative="1" as="geometry">
            <Array as="points">
              <mxPoint x="208" y="1162" />
              <mxPoint x="236" y="1071.090909090909" />
            </Array>
          </mxGeometry>
        </mxCell>
        <mxCell id="6DW6GiTfMn5qFB3sLEYP-1126" value="" style="curved=1;endArrow=blockThin;endFill=1;fontSize=11;" edge="1" parent="1" source="6DW6GiTfMn5qFB3sLEYP-1059" target="6DW6GiTfMn5qFB3sLEYP-995">
          <mxGeometry relative="1" as="geometry">
            <Array as="points">
              <mxPoint x="208" y="1268" />
              <mxPoint x="238" y="1076.20202020202" />
            </Array>
          </mxGeometry>
        </mxCell>
        <mxCell id="6DW6GiTfMn5qFB3sLEYP-1127" value="" style="curved=1;endArrow=blockThin;endFill=1;fontSize=11;" edge="1" parent="1" source="6DW6GiTfMn5qFB3sLEYP-1060" target="6DW6GiTfMn5qFB3sLEYP-1006">
          <mxGeometry relative="1" as="geometry">
            <Array as="points">
              <mxPoint x="4716" y="1268" />
              <mxPoint x="4750" y="1115.142857142857" />
            </Array>
          </mxGeometry>
        </mxCell>
        <mxCell id="6DW6GiTfMn5qFB3sLEYP-1128" value="" style="curved=1;endArrow=blockThin;endFill=1;fontSize=11;" edge="1" parent="1" source="6DW6GiTfMn5qFB3sLEYP-1062" target="6DW6GiTfMn5qFB3sLEYP-998">
          <mxGeometry relative="1" as="geometry">
            <Array as="points">
              <mxPoint x="1647" y="943" />
              <mxPoint x="1683" y="1040" />
            </Array>
          </mxGeometry>
        </mxCell>
        <mxCell id="6DW6GiTfMn5qFB3sLEYP-1129" value="" style="curved=1;endArrow=blockThin;endFill=1;fontSize=11;" edge="1" parent="1" source="6DW6GiTfMn5qFB3sLEYP-1063" target="6DW6GiTfMn5qFB3sLEYP-1000">
          <mxGeometry relative="1" as="geometry">
            <Array as="points">
              <mxPoint x="2155" y="1102" />
              <mxPoint x="2191" y="1109" />
            </Array>
          </mxGeometry>
        </mxCell>
        <mxCell id="6DW6GiTfMn5qFB3sLEYP-1130" value="" style="curved=1;endArrow=blockThin;endFill=1;fontSize=11;" edge="1" parent="1" source="6DW6GiTfMn5qFB3sLEYP-1064" target="6DW6GiTfMn5qFB3sLEYP-1006">
          <mxGeometry relative="1" as="geometry">
            <Array as="points">
              <mxPoint x="4716" y="1374" />
              <mxPoint x="4752" y="1121.7142857142858" />
            </Array>
          </mxGeometry>
        </mxCell>
        <mxCell id="6DW6GiTfMn5qFB3sLEYP-1131" value="" style="curved=1;endArrow=blockThin;endFill=1;fontSize=11;" edge="1" parent="1" source="6DW6GiTfMn5qFB3sLEYP-1066" target="6DW6GiTfMn5qFB3sLEYP-995">
          <mxGeometry relative="1" as="geometry">
            <Array as="points">
              <mxPoint x="208" y="1374" />
              <mxPoint x="240" y="1081.3131313131312" />
            </Array>
          </mxGeometry>
        </mxCell>
        <mxCell id="6DW6GiTfMn5qFB3sLEYP-1132" value="" style="curved=1;endArrow=blockThin;endFill=1;fontSize=11;" edge="1" parent="1" source="6DW6GiTfMn5qFB3sLEYP-1067" target="6DW6GiTfMn5qFB3sLEYP-995">
          <mxGeometry relative="1" as="geometry">
            <Array as="points">
              <mxPoint x="208" y="1480" />
              <mxPoint x="242" y="1086.4242424242423" />
            </Array>
          </mxGeometry>
        </mxCell>
        <mxCell id="6DW6GiTfMn5qFB3sLEYP-1133" value="" style="curved=1;endArrow=blockThin;endFill=1;fontSize=11;" edge="1" parent="1" source="6DW6GiTfMn5qFB3sLEYP-1069" target="6DW6GiTfMn5qFB3sLEYP-1002">
          <mxGeometry relative="1" as="geometry">
            <Array as="points">
              <mxPoint x="3142" y="1141" />
              <mxPoint x="3176" y="899.2211538461538" />
            </Array>
          </mxGeometry>
        </mxCell>
        <mxCell id="6DW6GiTfMn5qFB3sLEYP-1134" value="" style="curved=1;endArrow=blockThin;endFill=1;fontSize=11;" edge="1" parent="1" source="6DW6GiTfMn5qFB3sLEYP-1070" target="6DW6GiTfMn5qFB3sLEYP-996">
          <mxGeometry relative="1" as="geometry">
            <Array as="points">
              <mxPoint x="624" y="1457" />
              <mxPoint x="656" y="1329.0263157894738" />
            </Array>
          </mxGeometry>
        </mxCell>
        <mxCell id="6DW6GiTfMn5qFB3sLEYP-1135" value="" style="curved=1;endArrow=blockThin;endFill=1;fontSize=11;" edge="1" parent="1" source="6DW6GiTfMn5qFB3sLEYP-1071" target="6DW6GiTfMn5qFB3sLEYP-996">
          <mxGeometry relative="1" as="geometry">
            <Array as="points">
              <mxPoint x="624" y="1563" />
              <mxPoint x="658" y="1333.6263157894737" />
            </Array>
          </mxGeometry>
        </mxCell>
        <mxCell id="6DW6GiTfMn5qFB3sLEYP-1136" value="" style="curved=1;endArrow=blockThin;endFill=1;fontSize=11;" edge="1" parent="1" source="6DW6GiTfMn5qFB3sLEYP-1072" target="6DW6GiTfMn5qFB3sLEYP-1001">
          <mxGeometry relative="1" as="geometry">
            <Array as="points">
              <mxPoint x="1649" y="1147.8000000000002" />
              <mxPoint x="1665" y="966" />
              <mxPoint x="1913" y="966" />
              <mxPoint x="1913" y="763" />
              <mxPoint x="2173" y="763" />
              <mxPoint x="2173" y="763" />
              <mxPoint x="2411" y="763" />
              <mxPoint x="2411" y="763" />
              <mxPoint x="2632" y="763" />
              <mxPoint x="2650" y="885.2" />
            </Array>
          </mxGeometry>
        </mxCell>
        <mxCell id="6DW6GiTfMn5qFB3sLEYP-1137" value="" style="curved=1;endArrow=blockThin;endFill=1;fontSize=11;" edge="1" parent="1" source="6DW6GiTfMn5qFB3sLEYP-1072" target="6DW6GiTfMn5qFB3sLEYP-1009">
          <mxGeometry relative="1" as="geometry">
            <Array as="points">
              <mxPoint x="1649" y="1162.2000000000003" />
              <mxPoint x="1665" y="1132" />
              <mxPoint x="1913" y="1132" />
              <mxPoint x="1913" y="1395" />
              <mxPoint x="2173" y="1395" />
              <mxPoint x="2173" y="1395" />
              <mxPoint x="2411" y="1395" />
              <mxPoint x="2411" y="1395" />
              <mxPoint x="2632" y="1395" />
              <mxPoint x="2632" y="1395" />
              <mxPoint x="2884" y="1395" />
              <mxPoint x="2884" y="1690" />
              <mxPoint x="3160" y="1690" />
              <mxPoint x="3160" y="1690" />
              <mxPoint x="3516" y="1690" />
              <mxPoint x="3516" y="1690" />
              <mxPoint x="3746" y="1690" />
              <mxPoint x="3746" y="1690" />
              <mxPoint x="3999" y="1690" />
              <mxPoint x="3999" y="1690" />
              <mxPoint x="4203" y="1690" />
              <mxPoint x="4203" y="1690" />
              <mxPoint x="4471" y="1690" />
              <mxPoint x="4471" y="1690" />
              <mxPoint x="4734" y="1690" />
              <mxPoint x="4734" y="1215" />
              <mxPoint x="4981" y="1215" />
              <mxPoint x="4981" y="1215" />
              <mxPoint x="5171" y="1215" />
              <mxPoint x="5189" y="1118" />
            </Array>
          </mxGeometry>
        </mxCell>
        <mxCell id="6DW6GiTfMn5qFB3sLEYP-1138" value="" style="curved=1;endArrow=blockThin;endFill=1;fontSize=11;" edge="1" parent="1" source="6DW6GiTfMn5qFB3sLEYP-1072" target="6DW6GiTfMn5qFB3sLEYP-998">
          <mxGeometry relative="1" as="geometry">
            <Array as="points">
              <mxPoint x="1651" y="1155" />
              <mxPoint x="1683" y="1058" />
            </Array>
          </mxGeometry>
        </mxCell>
        <mxCell id="6DW6GiTfMn5qFB3sLEYP-1139" value="" style="curved=1;endArrow=blockThin;endFill=1;fontSize=11;" edge="1" parent="1" source="6DW6GiTfMn5qFB3sLEYP-1072" target="6DW6GiTfMn5qFB3sLEYP-1007">
          <mxGeometry relative="1" as="geometry">
            <Array as="points">
              <mxPoint x="1647" y="1140.6" />
              <mxPoint x="1665" y="906" />
              <mxPoint x="1913" y="906" />
              <mxPoint x="1913" y="348" />
              <mxPoint x="2173" y="348" />
              <mxPoint x="2173" y="348" />
              <mxPoint x="2411" y="348" />
              <mxPoint x="2411" y="348" />
              <mxPoint x="2632" y="348" />
              <mxPoint x="2632" y="348" />
              <mxPoint x="2884" y="348" />
              <mxPoint x="2884" y="348" />
              <mxPoint x="3160" y="348" />
              <mxPoint x="3160" y="348" />
              <mxPoint x="3516" y="348" />
              <mxPoint x="3516" y="348" />
              <mxPoint x="3746" y="348" />
              <mxPoint x="3746" y="348" />
              <mxPoint x="3999" y="348" />
              <mxPoint x="3999" y="348" />
              <mxPoint x="4203" y="348" />
              <mxPoint x="4203" y="348" />
              <mxPoint x="4471" y="348" />
              <mxPoint x="4471" y="348" />
              <mxPoint x="4734" y="348" />
              <mxPoint x="4734" y="348" />
              <mxPoint x="4981" y="348" />
              <mxPoint x="4981" y="348" />
              <mxPoint x="5171" y="348" />
              <mxPoint x="5189" y="838.7275264" />
            </Array>
          </mxGeometry>
        </mxCell>
        <mxCell id="6DW6GiTfMn5qFB3sLEYP-1140" value="" style="curved=1;endArrow=blockThin;endFill=1;fontSize=11;" edge="1" parent="1" source="6DW6GiTfMn5qFB3sLEYP-1072" target="6DW6GiTfMn5qFB3sLEYP-1008">
          <mxGeometry relative="1" as="geometry">
            <Array as="points">
              <mxPoint x="1647" y="1169.4" />
              <mxPoint x="1665" y="1192" />
              <mxPoint x="1913" y="1192" />
              <mxPoint x="1913" y="1455" />
              <mxPoint x="2173" y="1455" />
              <mxPoint x="2173" y="1455" />
              <mxPoint x="2411" y="1455" />
              <mxPoint x="2411" y="1455" />
              <mxPoint x="2632" y="1455" />
              <mxPoint x="2632" y="1455" />
              <mxPoint x="2884" y="1455" />
              <mxPoint x="2884" y="1750" />
              <mxPoint x="3160" y="1750" />
              <mxPoint x="3160" y="1750" />
              <mxPoint x="3516" y="1750" />
              <mxPoint x="3516" y="1750" />
              <mxPoint x="3746" y="1750" />
              <mxPoint x="3746" y="1750" />
              <mxPoint x="3999" y="1750" />
              <mxPoint x="3999" y="1750" />
              <mxPoint x="4203" y="1750" />
              <mxPoint x="4203" y="1750" />
              <mxPoint x="4471" y="1750" />
              <mxPoint x="4471" y="1750" />
              <mxPoint x="4734" y="1750" />
              <mxPoint x="4734" y="1275" />
              <mxPoint x="4981" y="1275" />
              <mxPoint x="4981" y="1275" />
              <mxPoint x="5171" y="1275" />
              <mxPoint x="5185" y="1273.8333333333335" />
            </Array>
          </mxGeometry>
        </mxCell>
        <mxCell id="6DW6GiTfMn5qFB3sLEYP-1141" value="" style="curved=1;endArrow=blockThin;endFill=1;fontSize=11;" edge="1" parent="1" source="6DW6GiTfMn5qFB3sLEYP-1075" target="6DW6GiTfMn5qFB3sLEYP-1008">
          <mxGeometry relative="1" as="geometry">
            <Array as="points">
              <mxPoint x="5153" y="1358" />
              <mxPoint x="5187" y="1281.0333333333335" />
            </Array>
          </mxGeometry>
        </mxCell>
        <mxCell id="6DW6GiTfMn5qFB3sLEYP-1142" value="" style="curved=1;endArrow=blockThin;endFill=1;fontSize=11;" edge="1" parent="1" source="6DW6GiTfMn5qFB3sLEYP-1076" target="6DW6GiTfMn5qFB3sLEYP-1009">
          <mxGeometry relative="1" as="geometry">
            <Array as="points">
              <mxPoint x="5155" y="1132" />
              <mxPoint x="5189" y="1100" />
            </Array>
          </mxGeometry>
        </mxCell>
        <mxCell id="6DW6GiTfMn5qFB3sLEYP-1143" value="" style="curved=1;endArrow=blockThin;endFill=1;fontSize=11;" edge="1" parent="1" source="6DW6GiTfMn5qFB3sLEYP-1076" target="6DW6GiTfMn5qFB3sLEYP-1007">
          <mxGeometry relative="1" as="geometry">
            <Array as="points">
              <mxPoint x="5153" y="1120" />
              <mxPoint x="5189" y="862.7275264" />
            </Array>
          </mxGeometry>
        </mxCell>
        <mxCell id="6DW6GiTfMn5qFB3sLEYP-1144" value="" style="curved=1;endArrow=blockThin;endFill=1;fontSize=11;" edge="1" parent="1" source="6DW6GiTfMn5qFB3sLEYP-1076" target="6DW6GiTfMn5qFB3sLEYP-1008">
          <mxGeometry relative="1" as="geometry">
            <Array as="points">
              <mxPoint x="5153" y="1144" />
              <mxPoint x="5187" y="1266.6333333333334" />
            </Array>
          </mxGeometry>
        </mxCell>
        <mxCell id="6DW6GiTfMn5qFB3sLEYP-1145" value="" style="curved=1;endArrow=blockThin;endFill=1;fontSize=11;" edge="1" parent="1" source="6DW6GiTfMn5qFB3sLEYP-1077" target="6DW6GiTfMn5qFB3sLEYP-1008">
          <mxGeometry relative="1" as="geometry">
            <Array as="points">
              <mxPoint x="5153" y="1464" />
              <mxPoint x="5189" y="1288.2333333333336" />
            </Array>
          </mxGeometry>
        </mxCell>
        <mxCell id="6DW6GiTfMn5qFB3sLEYP-1146" value="" style="curved=1;endArrow=blockThin;endFill=1;fontSize=11;" edge="1" parent="1" source="6DW6GiTfMn5qFB3sLEYP-1007" target="6DW6GiTfMn5qFB3sLEYP-1010">
          <mxGeometry relative="1" as="geometry">
            <Array as="points">
              <mxPoint x="5426" y="859.7275264" />
              <mxPoint x="5462" y="957.891072" />
            </Array>
          </mxGeometry>
        </mxCell>
        <mxCell id="6DW6GiTfMn5qFB3sLEYP-1147" value="" style="curved=1;endArrow=blockThin;endFill=1;fontSize=11;" edge="1" parent="1" source="6DW6GiTfMn5qFB3sLEYP-996" target="6DW6GiTfMn5qFB3sLEYP-1015">
          <mxGeometry relative="1" as="geometry">
            <Array as="points">
              <mxPoint x="851" y="1337.9707602339179" />
              <mxPoint x="887" y="1789" />
            </Array>
          </mxGeometry>
        </mxCell>
        <mxCell id="6DW6GiTfMn5qFB3sLEYP-1148" value="" style="curved=1;endArrow=blockThin;endFill=1;fontSize=11;" edge="1" parent="1" source="6DW6GiTfMn5qFB3sLEYP-994" target="6DW6GiTfMn5qFB3sLEYP-1019">
          <mxGeometry relative="1" as="geometry">
            <Array as="points">
              <mxPoint x="413" y="470.7725703716278" />
              <mxPoint x="431" y="406" />
              <mxPoint x="642" y="406" />
              <mxPoint x="642" y="406" />
              <mxPoint x="869" y="406" />
              <mxPoint x="869" y="406" />
              <mxPoint x="1179" y="406" />
              <mxPoint x="1179" y="408" />
              <mxPoint x="1433" y="408" />
              <mxPoint x="1433" y="408" />
              <mxPoint x="1665" y="408" />
              <mxPoint x="1665" y="408" />
              <mxPoint x="1913" y="408" />
              <mxPoint x="1913" y="408" />
              <mxPoint x="2173" y="408" />
              <mxPoint x="2173" y="408" />
              <mxPoint x="2411" y="408" />
              <mxPoint x="2411" y="408" />
              <mxPoint x="2632" y="408" />
              <mxPoint x="2632" y="408" />
              <mxPoint x="2884" y="408" />
              <mxPoint x="2884" y="408" />
              <mxPoint x="3160" y="408" />
              <mxPoint x="3160" y="408" />
              <mxPoint x="3516" y="408" />
              <mxPoint x="3516" y="408" />
              <mxPoint x="3746" y="408" />
              <mxPoint x="3746" y="408" />
              <mxPoint x="3999" y="408" />
              <mxPoint x="3999" y="408" />
              <mxPoint x="4203" y="408" />
              <mxPoint x="4203" y="408" />
              <mxPoint x="4471" y="408" />
              <mxPoint x="4471" y="408" />
              <mxPoint x="4734" y="408" />
              <mxPoint x="4734" y="408" />
              <mxPoint x="4981" y="408" />
              <mxPoint x="4999" y="814" />
            </Array>
          </mxGeometry>
        </mxCell>
        <mxCell id="6DW6GiTfMn5qFB3sLEYP-1149" value="" style="curved=1;endArrow=blockThin;endFill=1;fontSize=11;" edge="1" parent="1" source="6DW6GiTfMn5qFB3sLEYP-996" target="6DW6GiTfMn5qFB3sLEYP-1021">
          <mxGeometry relative="1" as="geometry">
            <Array as="points">
              <mxPoint x="851" y="1297.0818713450292" />
              <mxPoint x="887" y="1033" />
            </Array>
          </mxGeometry>
        </mxCell>
        <mxCell id="6DW6GiTfMn5qFB3sLEYP-1150" value="" style="curved=1;endArrow=blockThin;endFill=1;fontSize=11;" edge="1" parent="1" source="6DW6GiTfMn5qFB3sLEYP-1000" target="6DW6GiTfMn5qFB3sLEYP-1022">
          <mxGeometry relative="1" as="geometry">
            <Array as="points">
              <mxPoint x="2399" y="1109" />
              <mxPoint x="2411" y="1155" />
              <mxPoint x="2632" y="1155" />
              <mxPoint x="2632" y="1072" />
              <mxPoint x="2884" y="1072" />
              <mxPoint x="2884" y="1390" />
              <mxPoint x="3160" y="1390" />
              <mxPoint x="3160" y="1042" />
              <mxPoint x="3516" y="1042" />
              <mxPoint x="3516" y="1254" />
              <mxPoint x="3746" y="1254" />
              <mxPoint x="3746" y="1042" />
              <mxPoint x="3999" y="1042" />
              <mxPoint x="3999" y="1042" />
              <mxPoint x="4203" y="1042" />
              <mxPoint x="4203" y="1042" />
              <mxPoint x="4471" y="1042" />
              <mxPoint x="4489" y="996" />
            </Array>
          </mxGeometry>
        </mxCell>
        <mxCell id="6DW6GiTfMn5qFB3sLEYP-1151" value="" style="curved=1;endArrow=blockThin;endFill=1;fontSize=11;" edge="1" parent="1" source="6DW6GiTfMn5qFB3sLEYP-1000" target="6DW6GiTfMn5qFB3sLEYP-1023">
          <mxGeometry relative="1" as="geometry">
            <Array as="points">
              <mxPoint x="2395" y="1095.857142857143" />
              <mxPoint x="2411" y="989" />
              <mxPoint x="2632" y="989" />
              <mxPoint x="2632" y="468" />
              <mxPoint x="2884" y="468" />
              <mxPoint x="2884" y="468" />
              <mxPoint x="3160" y="468" />
              <mxPoint x="3160" y="468" />
              <mxPoint x="3516" y="468" />
              <mxPoint x="3516" y="468" />
              <mxPoint x="3746" y="468" />
              <mxPoint x="3746" y="468" />
              <mxPoint x="3999" y="468" />
              <mxPoint x="3999" y="468" />
              <mxPoint x="4203" y="468" />
              <mxPoint x="4203" y="468" />
              <mxPoint x="4471" y="468" />
              <mxPoint x="4489" y="784" />
            </Array>
          </mxGeometry>
        </mxCell>
        <mxCell id="6DW6GiTfMn5qFB3sLEYP-1152" value="" style="curved=1;endArrow=blockThin;endFill=1;fontSize=11;" edge="1" parent="1" source="6DW6GiTfMn5qFB3sLEYP-995" target="6DW6GiTfMn5qFB3sLEYP-1025">
          <mxGeometry relative="1" as="geometry">
            <Array as="points">
              <mxPoint x="413" y="1080.090909090909" />
              <mxPoint x="449" y="715" />
            </Array>
          </mxGeometry>
        </mxCell>
        <mxCell id="6DW6GiTfMn5qFB3sLEYP-1153" value="" style="curved=1;endArrow=blockThin;endFill=1;fontSize=11;" edge="1" parent="1" source="6DW6GiTfMn5qFB3sLEYP-1002" target="6DW6GiTfMn5qFB3sLEYP-1026">
          <mxGeometry relative="1" as="geometry">
            <Array as="points">
              <mxPoint x="3498" y="899.246153846154" />
              <mxPoint x="3534" y="1111" />
            </Array>
          </mxGeometry>
        </mxCell>
        <mxCell id="6DW6GiTfMn5qFB3sLEYP-1154" value="" style="curved=1;endArrow=blockThin;endFill=1;fontSize=11;" edge="1" parent="1" source="6DW6GiTfMn5qFB3sLEYP-996" target="6DW6GiTfMn5qFB3sLEYP-1027">
          <mxGeometry relative="1" as="geometry">
            <Array as="points">
              <mxPoint x="853" y="1302.1929824561403" />
              <mxPoint x="887" y="1139" />
            </Array>
          </mxGeometry>
        </mxCell>
        <mxCell id="6DW6GiTfMn5qFB3sLEYP-1155" value="" style="curved=1;endArrow=blockThin;endFill=1;fontSize=11;" edge="1" parent="1" source="6DW6GiTfMn5qFB3sLEYP-996" target="6DW6GiTfMn5qFB3sLEYP-1028">
          <mxGeometry relative="1" as="geometry">
            <Array as="points">
              <mxPoint x="855" y="1307.3040935672514" />
              <mxPoint x="887" y="1245" />
            </Array>
          </mxGeometry>
        </mxCell>
        <mxCell id="6DW6GiTfMn5qFB3sLEYP-1156" value="" style="curved=1;endArrow=blockThin;endFill=1;fontSize=11;" edge="1" parent="1" source="6DW6GiTfMn5qFB3sLEYP-996" target="6DW6GiTfMn5qFB3sLEYP-1029">
          <mxGeometry relative="1" as="geometry">
            <Array as="points">
              <mxPoint x="857" y="1312.4152046783624" />
              <mxPoint x="887" y="1351" />
            </Array>
          </mxGeometry>
        </mxCell>
        <mxCell id="6DW6GiTfMn5qFB3sLEYP-1157" value="" style="curved=1;endArrow=blockThin;endFill=1;fontSize=11;" edge="1" parent="1" source="6DW6GiTfMn5qFB3sLEYP-996" target="6DW6GiTfMn5qFB3sLEYP-1030">
          <mxGeometry relative="1" as="geometry">
            <Array as="points">
              <mxPoint x="859" y="1317.5263157894735" />
              <mxPoint x="887" y="1457" />
            </Array>
          </mxGeometry>
        </mxCell>
        <mxCell id="6DW6GiTfMn5qFB3sLEYP-1158" value="" style="curved=1;endArrow=blockThin;endFill=1;fontSize=11;" edge="1" parent="1" source="6DW6GiTfMn5qFB3sLEYP-1002" target="6DW6GiTfMn5qFB3sLEYP-1031">
          <mxGeometry relative="1" as="geometry">
            <Array as="points">
              <mxPoint x="3498" y="870.4461538461538" />
              <mxPoint x="3534" y="687" />
            </Array>
          </mxGeometry>
        </mxCell>
        <mxCell id="6DW6GiTfMn5qFB3sLEYP-1159" value="" style="curved=1;endArrow=blockThin;endFill=1;fontSize=11;" edge="1" parent="1" source="6DW6GiTfMn5qFB3sLEYP-1002" target="6DW6GiTfMn5qFB3sLEYP-1032">
          <mxGeometry relative="1" as="geometry">
            <Array as="points">
              <mxPoint x="3500" y="877.6461538461539" />
              <mxPoint x="3534" y="793" />
            </Array>
          </mxGeometry>
        </mxCell>
        <mxCell id="6DW6GiTfMn5qFB3sLEYP-1160" value="" style="curved=1;endArrow=blockThin;endFill=1;fontSize=11;" edge="1" parent="1" source="6DW6GiTfMn5qFB3sLEYP-1002" target="6DW6GiTfMn5qFB3sLEYP-1033">
          <mxGeometry relative="1" as="geometry">
            <Array as="points">
              <mxPoint x="3502" y="884.8461538461539" />
              <mxPoint x="3534" y="899" />
            </Array>
          </mxGeometry>
        </mxCell>
        <mxCell id="6DW6GiTfMn5qFB3sLEYP-1161" value="" style="curved=1;endArrow=blockThin;endFill=1;fontSize=11;" edge="1" parent="1" source="6DW6GiTfMn5qFB3sLEYP-996" target="6DW6GiTfMn5qFB3sLEYP-1034">
          <mxGeometry relative="1" as="geometry">
            <Array as="points">
              <mxPoint x="857" y="1322.6374269005846" />
              <mxPoint x="887" y="1563" />
            </Array>
          </mxGeometry>
        </mxCell>
        <mxCell id="6DW6GiTfMn5qFB3sLEYP-1162" value="" style="curved=1;endArrow=blockThin;endFill=1;fontSize=11;" edge="1" parent="1" source="6DW6GiTfMn5qFB3sLEYP-1002" target="6DW6GiTfMn5qFB3sLEYP-1036">
          <mxGeometry relative="1" as="geometry">
            <Array as="points">
              <mxPoint x="3500" y="892.046153846154" />
              <mxPoint x="3534" y="1005" />
            </Array>
          </mxGeometry>
        </mxCell>
        <mxCell id="6DW6GiTfMn5qFB3sLEYP-1163" value="" style="curved=1;endArrow=blockThin;endFill=1;fontSize=11;" edge="1" parent="1" source="6DW6GiTfMn5qFB3sLEYP-1000" target="6DW6GiTfMn5qFB3sLEYP-1037">
          <mxGeometry relative="1" as="geometry">
            <Array as="points">
              <mxPoint x="2397" y="1115.5714285714284" />
              <mxPoint x="2411" y="1215" />
              <mxPoint x="2632" y="1215" />
              <mxPoint x="2632" y="1215" />
              <mxPoint x="2884" y="1215" />
              <mxPoint x="2884" y="1450" />
              <mxPoint x="3160" y="1450" />
              <mxPoint x="3160" y="1450" />
              <mxPoint x="3516" y="1450" />
              <mxPoint x="3516" y="1450" />
              <mxPoint x="3746" y="1450" />
              <mxPoint x="3746" y="1450" />
              <mxPoint x="3999" y="1450" />
              <mxPoint x="3999" y="1450" />
              <mxPoint x="4203" y="1450" />
              <mxPoint x="4203" y="1450" />
              <mxPoint x="4471" y="1450" />
              <mxPoint x="4489" y="1102" />
            </Array>
          </mxGeometry>
        </mxCell>
        <mxCell id="6DW6GiTfMn5qFB3sLEYP-1164" value="" style="curved=1;endArrow=blockThin;endFill=1;fontSize=11;" edge="1" parent="1" source="6DW6GiTfMn5qFB3sLEYP-1001" target="6DW6GiTfMn5qFB3sLEYP-1038">
          <mxGeometry relative="1" as="geometry">
            <Array as="points">
              <mxPoint x="2866" y="916.9142857142857" />
              <mxPoint x="2902" y="1247" />
            </Array>
          </mxGeometry>
        </mxCell>
        <mxCell id="6DW6GiTfMn5qFB3sLEYP-1165" value="" style="curved=1;endArrow=blockThin;endFill=1;fontSize=11;" edge="1" parent="1" source="6DW6GiTfMn5qFB3sLEYP-997" target="6DW6GiTfMn5qFB3sLEYP-1039">
          <mxGeometry relative="1" as="geometry">
            <Array as="points">
              <mxPoint x="851" y="688.9333333333334" />
              <mxPoint x="887" y="489" />
            </Array>
          </mxGeometry>
        </mxCell>
        <mxCell id="6DW6GiTfMn5qFB3sLEYP-1166" value="" style="curved=1;endArrow=blockThin;endFill=1;fontSize=11;" edge="1" parent="1" source="6DW6GiTfMn5qFB3sLEYP-1001" target="6DW6GiTfMn5qFB3sLEYP-1040">
          <mxGeometry relative="1" as="geometry">
            <Array as="points">
              <mxPoint x="2866" y="877.4857142857144" />
              <mxPoint x="2902" y="611" />
            </Array>
          </mxGeometry>
        </mxCell>
        <mxCell id="6DW6GiTfMn5qFB3sLEYP-1167" value="" style="curved=1;endArrow=blockThin;endFill=1;fontSize=11;" edge="1" parent="1" source="6DW6GiTfMn5qFB3sLEYP-1001" target="6DW6GiTfMn5qFB3sLEYP-1041">
          <mxGeometry relative="1" as="geometry">
            <Array as="points">
              <mxPoint x="2868" y="884.0571428571429" />
              <mxPoint x="2902" y="717" />
            </Array>
          </mxGeometry>
        </mxCell>
        <mxCell id="6DW6GiTfMn5qFB3sLEYP-1168" value="" style="curved=1;endArrow=blockThin;endFill=1;fontSize=11;" edge="1" parent="1" source="6DW6GiTfMn5qFB3sLEYP-1001" target="6DW6GiTfMn5qFB3sLEYP-1042">
          <mxGeometry relative="1" as="geometry">
            <Array as="points">
              <mxPoint x="2870" y="890.6285714285715" />
              <mxPoint x="2902" y="823" />
            </Array>
          </mxGeometry>
        </mxCell>
        <mxCell id="6DW6GiTfMn5qFB3sLEYP-1169" value="" style="curved=1;endArrow=blockThin;endFill=1;fontSize=11;" edge="1" parent="1" source="6DW6GiTfMn5qFB3sLEYP-1001" target="6DW6GiTfMn5qFB3sLEYP-1043">
          <mxGeometry relative="1" as="geometry">
            <Array as="points">
              <mxPoint x="2872" y="897.2" />
              <mxPoint x="2902" y="929" />
            </Array>
          </mxGeometry>
        </mxCell>
        <mxCell id="6DW6GiTfMn5qFB3sLEYP-1170" value="" style="curved=1;endArrow=blockThin;endFill=1;fontSize=11;" edge="1" parent="1" source="6DW6GiTfMn5qFB3sLEYP-1001" target="6DW6GiTfMn5qFB3sLEYP-1044">
          <mxGeometry relative="1" as="geometry">
            <Array as="points">
              <mxPoint x="2870" y="903.7714285714286" />
              <mxPoint x="2902" y="1035" />
            </Array>
          </mxGeometry>
        </mxCell>
        <mxCell id="6DW6GiTfMn5qFB3sLEYP-1171" value="" style="curved=1;endArrow=blockThin;endFill=1;fontSize=11;" edge="1" parent="1" source="6DW6GiTfMn5qFB3sLEYP-1003" target="6DW6GiTfMn5qFB3sLEYP-1045">
          <mxGeometry relative="1" as="geometry">
            <Array as="points">
              <mxPoint x="3981" y="899" />
              <mxPoint x="4017" y="899" />
            </Array>
          </mxGeometry>
        </mxCell>
        <mxCell id="6DW6GiTfMn5qFB3sLEYP-1172" value="" style="curved=1;endArrow=blockThin;endFill=1;fontSize=11;" edge="1" parent="1" source="6DW6GiTfMn5qFB3sLEYP-1007" target="6DW6GiTfMn5qFB3sLEYP-1048">
          <mxGeometry relative="1" as="geometry">
            <Array as="points">
              <mxPoint x="5426" y="841.7275264" />
              <mxPoint x="5462" y="850.7275264" />
            </Array>
          </mxGeometry>
        </mxCell>
        <mxCell id="6DW6GiTfMn5qFB3sLEYP-1173" value="" style="curved=1;endArrow=blockThin;endFill=1;fontSize=11;" edge="1" parent="1" source="6DW6GiTfMn5qFB3sLEYP-1004" target="6DW6GiTfMn5qFB3sLEYP-1049">
          <mxGeometry relative="1" as="geometry">
            <Array as="points">
              <mxPoint x="4453" y="943" />
              <mxPoint x="4489" y="890" />
            </Array>
          </mxGeometry>
        </mxCell>
        <mxCell id="6DW6GiTfMn5qFB3sLEYP-1174" value="" style="curved=1;endArrow=blockThin;endFill=1;fontSize=11;" edge="1" parent="1" source="6DW6GiTfMn5qFB3sLEYP-1009" target="6DW6GiTfMn5qFB3sLEYP-1050">
          <mxGeometry relative="1" as="geometry">
            <Array as="points">
              <mxPoint x="5426" y="1109" />
              <mxPoint x="5462" y="1162" />
            </Array>
          </mxGeometry>
        </mxCell>
        <mxCell id="6DW6GiTfMn5qFB3sLEYP-1175" value="" style="curved=1;endArrow=blockThin;endFill=1;fontSize=11;" edge="1" parent="1" source="6DW6GiTfMn5qFB3sLEYP-1008" target="6DW6GiTfMn5qFB3sLEYP-1051">
          <mxGeometry relative="1" as="geometry">
            <Array as="points">
              <mxPoint x="5426" y="1273.8333333333335" />
              <mxPoint x="5462" y="1273.8333333333335" />
            </Array>
          </mxGeometry>
        </mxCell>
        <mxCell id="6DW6GiTfMn5qFB3sLEYP-1176" value="" style="curved=1;endArrow=blockThin;endFill=1;fontSize=11;" edge="1" parent="1" source="6DW6GiTfMn5qFB3sLEYP-1000" target="6DW6GiTfMn5qFB3sLEYP-1052">
          <mxGeometry relative="1" as="geometry">
            <Array as="points">
              <mxPoint x="2397" y="1102.4285714285716" />
              <mxPoint x="2429" y="1072" />
            </Array>
          </mxGeometry>
        </mxCell>
        <mxCell id="6DW6GiTfMn5qFB3sLEYP-1177" value="" style="curved=1;endArrow=blockThin;endFill=1;fontSize=11;" edge="1" parent="1" source="6DW6GiTfMn5qFB3sLEYP-1005" target="6DW6GiTfMn5qFB3sLEYP-1053">
          <mxGeometry relative="1" as="geometry">
            <Array as="points">
              <mxPoint x="4963" y="868.6" />
              <mxPoint x="4999" y="1026" />
            </Array>
          </mxGeometry>
        </mxCell>
        <mxCell id="6DW6GiTfMn5qFB3sLEYP-1178" value="" style="curved=1;endArrow=blockThin;endFill=1;fontSize=11;" edge="1" parent="1" source="6DW6GiTfMn5qFB3sLEYP-1000" target="6DW6GiTfMn5qFB3sLEYP-1054">
          <mxGeometry relative="1" as="geometry">
            <Array as="points">
              <mxPoint x="2393" y="1089.2857142857142" />
              <mxPoint x="2429" y="906" />
            </Array>
          </mxGeometry>
        </mxCell>
        <mxCell id="6DW6GiTfMn5qFB3sLEYP-1179" value="" style="curved=1;endArrow=blockThin;endFill=1;fontSize=11;" edge="1" parent="1" source="6DW6GiTfMn5qFB3sLEYP-997" target="6DW6GiTfMn5qFB3sLEYP-1057">
          <mxGeometry relative="1" as="geometry">
            <Array as="points">
              <mxPoint x="853" y="696.1333333333333" />
              <mxPoint x="887" y="595" />
            </Array>
          </mxGeometry>
        </mxCell>
        <mxCell id="6DW6GiTfMn5qFB3sLEYP-1180" value="" style="curved=1;endArrow=blockThin;endFill=1;fontSize=11;" edge="1" parent="1" source="6DW6GiTfMn5qFB3sLEYP-997" target="6DW6GiTfMn5qFB3sLEYP-1058">
          <mxGeometry relative="1" as="geometry">
            <Array as="points">
              <mxPoint x="855" y="703.3333333333333" />
              <mxPoint x="887" y="701" />
            </Array>
          </mxGeometry>
        </mxCell>
        <mxCell id="6DW6GiTfMn5qFB3sLEYP-1181" value="" style="curved=1;endArrow=blockThin;endFill=1;fontSize=11;" edge="1" parent="1" source="6DW6GiTfMn5qFB3sLEYP-1000" target="6DW6GiTfMn5qFB3sLEYP-1060">
          <mxGeometry relative="1" as="geometry">
            <Array as="points">
              <mxPoint x="2395" y="1122.142857142857" />
              <mxPoint x="2411" y="1275" />
              <mxPoint x="2632" y="1275" />
              <mxPoint x="2632" y="1275" />
              <mxPoint x="2884" y="1275" />
              <mxPoint x="2884" y="1570" />
              <mxPoint x="3160" y="1570" />
              <mxPoint x="3160" y="1570" />
              <mxPoint x="3516" y="1570" />
              <mxPoint x="3516" y="1570" />
              <mxPoint x="3746" y="1570" />
              <mxPoint x="3746" y="1570" />
              <mxPoint x="3999" y="1570" />
              <mxPoint x="3999" y="1570" />
              <mxPoint x="4203" y="1570" />
              <mxPoint x="4203" y="1570" />
              <mxPoint x="4471" y="1570" />
              <mxPoint x="4489" y="1268" />
            </Array>
          </mxGeometry>
        </mxCell>
        <mxCell id="6DW6GiTfMn5qFB3sLEYP-1182" value="" style="curved=1;endArrow=blockThin;endFill=1;fontSize=11;" edge="1" parent="1" source="6DW6GiTfMn5qFB3sLEYP-1005" target="6DW6GiTfMn5qFB3sLEYP-1061">
          <mxGeometry relative="1" as="geometry">
            <Array as="points">
              <mxPoint x="4963" y="850.6" />
              <mxPoint x="4999" y="920" />
            </Array>
          </mxGeometry>
        </mxCell>
        <mxCell id="6DW6GiTfMn5qFB3sLEYP-1183" value="" style="curved=1;endArrow=blockThin;endFill=1;fontSize=11;" edge="1" parent="1" source="6DW6GiTfMn5qFB3sLEYP-997" target="6DW6GiTfMn5qFB3sLEYP-1062">
          <mxGeometry relative="1" as="geometry">
            <Array as="points">
              <mxPoint x="853" y="710.5333333333333" />
              <mxPoint x="869" y="784" />
              <mxPoint x="1179" y="784" />
              <mxPoint x="1179" y="784" />
              <mxPoint x="1433" y="784" />
              <mxPoint x="1451" y="943" />
            </Array>
          </mxGeometry>
        </mxCell>
        <mxCell id="6DW6GiTfMn5qFB3sLEYP-1184" value="" style="curved=1;endArrow=blockThin;endFill=1;fontSize=11;" edge="1" parent="1" source="6DW6GiTfMn5qFB3sLEYP-998" target="6DW6GiTfMn5qFB3sLEYP-1063">
          <mxGeometry relative="1" as="geometry">
            <Array as="points">
              <mxPoint x="1895" y="1058" />
              <mxPoint x="1931" y="1102" />
            </Array>
          </mxGeometry>
        </mxCell>
        <mxCell id="6DW6GiTfMn5qFB3sLEYP-1185" value="" style="curved=1;endArrow=blockThin;endFill=1;fontSize=11;" edge="1" parent="1" source="6DW6GiTfMn5qFB3sLEYP-1000" target="6DW6GiTfMn5qFB3sLEYP-1064">
          <mxGeometry relative="1" as="geometry">
            <Array as="points">
              <mxPoint x="2393" y="1128.7142857142858" />
              <mxPoint x="2411" y="1335" />
              <mxPoint x="2632" y="1335" />
              <mxPoint x="2632" y="1335" />
              <mxPoint x="2884" y="1335" />
              <mxPoint x="2884" y="1630" />
              <mxPoint x="3160" y="1630" />
              <mxPoint x="3160" y="1630" />
              <mxPoint x="3516" y="1630" />
              <mxPoint x="3516" y="1630" />
              <mxPoint x="3746" y="1630" />
              <mxPoint x="3746" y="1630" />
              <mxPoint x="3999" y="1630" />
              <mxPoint x="3999" y="1630" />
              <mxPoint x="4203" y="1630" />
              <mxPoint x="4203" y="1630" />
              <mxPoint x="4471" y="1630" />
              <mxPoint x="4489" y="1374" />
            </Array>
          </mxGeometry>
        </mxCell>
        <mxCell id="6DW6GiTfMn5qFB3sLEYP-1186" value="" style="curved=1;endArrow=blockThin;endFill=1;fontSize=11;" edge="1" parent="1" source="6DW6GiTfMn5qFB3sLEYP-997" target="6DW6GiTfMn5qFB3sLEYP-1065">
          <mxGeometry relative="1" as="geometry">
            <Array as="points">
              <mxPoint x="851" y="717.7333333333333" />
              <mxPoint x="887" y="867" />
            </Array>
          </mxGeometry>
        </mxCell>
        <mxCell id="6DW6GiTfMn5qFB3sLEYP-1187" value="" style="curved=1;endArrow=blockThin;endFill=1;fontSize=11;" edge="1" parent="1" source="6DW6GiTfMn5qFB3sLEYP-998" target="6DW6GiTfMn5qFB3sLEYP-1068">
          <mxGeometry relative="1" as="geometry">
            <Array as="points">
              <mxPoint x="1895" y="1040" />
              <mxPoint x="1931" y="996" />
            </Array>
          </mxGeometry>
        </mxCell>
        <mxCell id="6DW6GiTfMn5qFB3sLEYP-1188" value="" style="curved=1;endArrow=blockThin;endFill=1;fontSize=11;" edge="1" parent="1" source="6DW6GiTfMn5qFB3sLEYP-1001" target="6DW6GiTfMn5qFB3sLEYP-1069">
          <mxGeometry relative="1" as="geometry">
            <Array as="points">
              <mxPoint x="2868" y="910.3428571428572" />
              <mxPoint x="2902" y="1141" />
            </Array>
          </mxGeometry>
        </mxCell>
        <mxCell id="6DW6GiTfMn5qFB3sLEYP-1189" value="" style="curved=1;endArrow=blockThin;endFill=1;fontSize=11;" edge="1" parent="1" source="6DW6GiTfMn5qFB3sLEYP-999" target="6DW6GiTfMn5qFB3sLEYP-1072">
          <mxGeometry relative="1" as="geometry">
            <Array as="points">
              <mxPoint x="1415" y="1088" />
              <mxPoint x="1451" y="1155" />
            </Array>
          </mxGeometry>
        </mxCell>
        <mxCell id="6DW6GiTfMn5qFB3sLEYP-1190" value="" style="curved=1;endArrow=blockThin;endFill=1;fontSize=11;" edge="1" parent="1" source="6DW6GiTfMn5qFB3sLEYP-995" target="6DW6GiTfMn5qFB3sLEYP-1073">
          <mxGeometry relative="1" as="geometry">
            <Array as="points">
              <mxPoint x="413" y="1062.090909090909" />
              <mxPoint x="449" y="609" />
            </Array>
          </mxGeometry>
        </mxCell>
        <mxCell id="6DW6GiTfMn5qFB3sLEYP-1191" value="" style="curved=1;endArrow=blockThin;endFill=1;fontSize=11;" edge="1" parent="1" source="6DW6GiTfMn5qFB3sLEYP-999" target="6DW6GiTfMn5qFB3sLEYP-1074">
          <mxGeometry relative="1" as="geometry">
            <Array as="points">
              <mxPoint x="1415" y="1070" />
              <mxPoint x="1451" y="1049" />
            </Array>
          </mxGeometry>
        </mxCell>
        <mxCell id="6DW6GiTfMn5qFB3sLEYP-1192" value="" style="curved=1;endArrow=blockThin;endFill=1;fontSize=11;" edge="1" parent="1" source="6DW6GiTfMn5qFB3sLEYP-996" target="6DW6GiTfMn5qFB3sLEYP-1075">
          <mxGeometry relative="1" as="geometry">
            <Array as="points">
              <mxPoint x="855" y="1327.7485380116957" />
              <mxPoint x="869" y="1646" />
              <mxPoint x="1179" y="1646" />
              <mxPoint x="1179" y="1646" />
              <mxPoint x="1433" y="1646" />
              <mxPoint x="1433" y="1646" />
              <mxPoint x="1665" y="1646" />
              <mxPoint x="1665" y="1646" />
              <mxPoint x="1913" y="1646" />
              <mxPoint x="1913" y="1646" />
              <mxPoint x="2173" y="1646" />
              <mxPoint x="2173" y="1646" />
              <mxPoint x="2411" y="1646" />
              <mxPoint x="2411" y="1646" />
              <mxPoint x="2632" y="1646" />
              <mxPoint x="2632" y="1646" />
              <mxPoint x="2884" y="1646" />
              <mxPoint x="2884" y="1810" />
              <mxPoint x="3160" y="1810" />
              <mxPoint x="3160" y="1810" />
              <mxPoint x="3516" y="1810" />
              <mxPoint x="3516" y="1810" />
              <mxPoint x="3746" y="1810" />
              <mxPoint x="3746" y="1810" />
              <mxPoint x="3999" y="1810" />
              <mxPoint x="3999" y="1810" />
              <mxPoint x="4203" y="1810" />
              <mxPoint x="4203" y="1810" />
              <mxPoint x="4471" y="1810" />
              <mxPoint x="4471" y="1810" />
              <mxPoint x="4734" y="1810" />
              <mxPoint x="4734" y="1810" />
              <mxPoint x="4981" y="1810" />
              <mxPoint x="4999" y="1358" />
            </Array>
          </mxGeometry>
        </mxCell>
        <mxCell id="6DW6GiTfMn5qFB3sLEYP-1193" value="" style="curved=1;endArrow=blockThin;endFill=1;fontSize=11;" edge="1" parent="1" source="6DW6GiTfMn5qFB3sLEYP-1006" target="6DW6GiTfMn5qFB3sLEYP-1076">
          <mxGeometry relative="1" as="geometry">
            <Array as="points">
              <mxPoint x="4963" y="1102" />
              <mxPoint x="4999" y="1132" />
            </Array>
          </mxGeometry>
        </mxCell>
        <mxCell id="6DW6GiTfMn5qFB3sLEYP-1194" value="" style="curved=1;endArrow=blockThin;endFill=1;fontSize=11;" edge="1" parent="1" source="6DW6GiTfMn5qFB3sLEYP-996" target="6DW6GiTfMn5qFB3sLEYP-1077">
          <mxGeometry relative="1" as="geometry">
            <Array as="points">
              <mxPoint x="853" y="1332.8596491228068" />
              <mxPoint x="869" y="1706" />
              <mxPoint x="1179" y="1706" />
              <mxPoint x="1179" y="1706" />
              <mxPoint x="1433" y="1706" />
              <mxPoint x="1433" y="1706" />
              <mxPoint x="1665" y="1706" />
              <mxPoint x="1665" y="1706" />
              <mxPoint x="1913" y="1706" />
              <mxPoint x="1913" y="1706" />
              <mxPoint x="2173" y="1706" />
              <mxPoint x="2173" y="1706" />
              <mxPoint x="2411" y="1706" />
              <mxPoint x="2411" y="1706" />
              <mxPoint x="2632" y="1706" />
              <mxPoint x="2632" y="1706" />
              <mxPoint x="2884" y="1706" />
              <mxPoint x="2884" y="1870" />
              <mxPoint x="3160" y="1870" />
              <mxPoint x="3160" y="1870" />
              <mxPoint x="3516" y="1870" />
              <mxPoint x="3516" y="1870" />
              <mxPoint x="3746" y="1870" />
              <mxPoint x="3746" y="1870" />
              <mxPoint x="3999" y="1870" />
              <mxPoint x="3999" y="1870" />
              <mxPoint x="4203" y="1870" />
              <mxPoint x="4203" y="1870" />
              <mxPoint x="4471" y="1870" />
              <mxPoint x="4471" y="1870" />
              <mxPoint x="4734" y="1870" />
              <mxPoint x="4734" y="1870" />
              <mxPoint x="4981" y="1870" />
              <mxPoint x="4999" y="1464" />
            </Array>
          </mxGeometry>
        </mxCell>
      </root>
    </mxGraphModel>
  </diagram>
</mxfile>
